<svg width="95" height="15" viewBox="0 0 95 15" fill="none" xmlns="http://www.w3.org/2000/svg">
<path d="M26.5039 13H25.5811V3.99023H19.9277V13H18.9912V3.13574H26.5039V13ZM33.5859 12.125C32.9935 12.7858 32.2096 13.1162 31.2344 13.1162C30.2591 13.1162 29.4753 12.7858 28.8828 12.125C28.2904 11.4596 27.9941 10.5664 27.9941 9.44531C27.9941 8.32422 28.2904 7.43327 28.8828 6.77246C29.4798 6.1071 30.2637 5.77441 31.2344 5.77441C32.2096 5.77441 32.9935 6.1071 33.5859 6.77246C34.1784 7.43327 34.4746 8.32422 34.4746 9.44531C34.4746 10.5664 34.1784 11.4596 33.5859 12.125ZM29.5459 11.5508C29.9652 12.0612 30.528 12.3164 31.2344 12.3164C31.9408 12.3164 32.5036 12.0612 32.9229 11.5508C33.3467 11.0404 33.5586 10.3385 33.5586 9.44531C33.5586 8.55208 33.3467 7.85026 32.9229 7.33984C32.5036 6.82943 31.9408 6.57422 31.2344 6.57422C30.528 6.57422 29.9652 6.82943 29.5459 7.33984C29.1266 7.85026 28.917 8.55208 28.917 9.44531C28.917 10.3385 29.1266 11.0404 29.5459 11.5508ZM38.1523 13.123C37.3822 13.123 36.7464 12.9453 36.2451 12.5898C35.7438 12.2344 35.4544 11.7604 35.377 11.168H36.2861C36.3682 11.5326 36.571 11.8242 36.8945 12.043C37.2227 12.2572 37.6419 12.3643 38.1523 12.3643C38.7038 12.3643 39.139 12.2412 39.458 11.9951C39.777 11.749 39.9365 11.4209 39.9365 11.0107C39.9365 10.1312 39.3327 9.69141 38.125 9.69141H37.0244V8.94629H38.125C38.6309 8.94629 39.0182 8.84147 39.2871 8.63184C39.5605 8.4222 39.6973 8.1237 39.6973 7.73633C39.6973 7.3763 39.5651 7.08691 39.3008 6.86816C39.0365 6.64941 38.6605 6.54004 38.1729 6.54004C37.6852 6.54004 37.2842 6.64941 36.9697 6.86816C36.6598 7.08236 36.4707 7.36947 36.4023 7.72949H35.5205C35.6071 7.1416 35.8828 6.66992 36.3477 6.31445C36.8171 5.95898 37.4232 5.78125 38.166 5.78125C38.9271 5.78125 39.5195 5.95215 39.9434 6.29395C40.3717 6.63574 40.5859 7.09603 40.5859 7.6748C40.5859 8.05762 40.4652 8.39486 40.2236 8.68652C39.9867 8.97819 39.679 9.16504 39.3008 9.24707V9.29492C39.7747 9.38151 40.1484 9.57064 40.4219 9.8623C40.6953 10.1494 40.832 10.5163 40.832 10.9629C40.832 11.6237 40.5859 12.1501 40.0938 12.542C39.6061 12.9294 38.959 13.123 38.1523 13.123ZM44.9541 6.63574H43.0879V8.95312H44.8242C45.3118 8.95312 45.6833 8.85059 45.9385 8.64551C46.1982 8.44043 46.3281 8.14421 46.3281 7.75684C46.3281 7.40137 46.2074 7.12565 45.9658 6.92969C45.7288 6.73372 45.3916 6.63574 44.9541 6.63574ZM44.8926 9.69141H43.0879V12.2549H45.0566C45.5807 12.2549 45.9795 12.1455 46.2529 11.9268C46.5264 11.708 46.6631 11.3867 46.6631 10.9629C46.6631 10.5436 46.5104 10.2269 46.2051 10.0127C45.9043 9.7985 45.4668 9.69141 44.8926 9.69141ZM42.1924 13V5.89062H45.0635C45.7288 5.89062 46.2529 6.05013 46.6357 6.36914C47.0186 6.68359 47.21 7.11882 47.21 7.6748C47.21 8.06673 47.0915 8.41081 46.8545 8.70703C46.6221 9.00326 46.3258 9.18555 45.9658 9.25391V9.30176C46.4352 9.35645 46.8158 9.53418 47.1074 9.83496C47.4036 10.1357 47.5518 10.5186 47.5518 10.9834C47.5518 11.6169 47.333 12.1113 46.8955 12.4668C46.4626 12.8223 45.8633 13 45.0977 13H42.1924ZM54.1484 12.125C53.556 12.7858 52.7721 13.1162 51.7969 13.1162C50.8216 13.1162 50.0378 12.7858 49.4453 12.125C48.8529 11.4596 48.5566 10.5664 48.5566 9.44531C48.5566 8.32422 48.8529 7.43327 49.4453 6.77246C50.0423 6.1071 50.8262 5.77441 51.7969 5.77441C52.7721 5.77441 53.556 6.1071 54.1484 6.77246C54.7409 7.43327 55.0371 8.32422 55.0371 9.44531C55.0371 10.5664 54.7409 11.4596 54.1484 12.125ZM50.1084 11.5508C50.5277 12.0612 51.0905 12.3164 51.7969 12.3164C52.5033 12.3164 53.0661 12.0612 53.4854 11.5508C53.9092 11.0404 54.1211 10.3385 54.1211 9.44531C54.1211 8.55208 53.9092 7.85026 53.4854 7.33984C53.0661 6.82943 52.5033 6.57422 51.7969 6.57422C51.0905 6.57422 50.5277 6.82943 50.1084 7.33984C49.6891 7.85026 49.4795 8.55208 49.4795 9.44531C49.4795 10.3385 49.6891 11.0404 50.1084 11.5508ZM61.1758 13V9.69141H57.2656V13H56.3701V5.89062H57.2656V8.93945H61.1758V5.89062H62.0713V13H61.1758ZM64.6621 13H63.7666V5.89062H64.6621V11.6055H64.71L68.668 5.89062H69.5635V13H68.668V7.28516H68.627L64.6621 13ZM76.4062 5.89062V6.64258H73.9863V13H73.0908V6.64258H70.6709V5.89062H76.4062ZM79.9473 9.05566H78.416V12.248H79.9473C80.4622 12.248 80.8724 12.1022 81.1777 11.8105C81.4876 11.5189 81.6426 11.1315 81.6426 10.6484C81.6426 10.1654 81.4876 9.78027 81.1777 9.49316C80.8724 9.2015 80.4622 9.05566 79.9473 9.05566ZM77.5205 13V5.89062H78.416V8.30371H79.9609C80.7448 8.30371 81.3691 8.51562 81.834 8.93945C82.3034 9.35872 82.5381 9.92839 82.5381 10.6484C82.5381 11.3685 82.3034 11.9404 81.834 12.3643C81.3691 12.7881 80.7448 13 79.9609 13H77.5205Z" fill="#E11E26"/>
<path d="M89 8L91.5 10L94 8" stroke="#E11E26"/>
<path d="M6.41679 9.26426C6.93294 9.96183 7.59437 10.5364 8.35464 10.9477L9.55845 10.2245C9.59366 10.2065 9.63342 10.1998 9.67245 10.2051C9.71149 10.2105 9.74796 10.2277 9.77705 10.2544L11.611 11.8407C11.6811 11.8976 11.7371 11.9702 11.7745 12.0528C11.8119 12.1354 11.8298 12.2257 11.8268 12.3166C11.8237 12.4074 11.7998 12.4964 11.7568 12.5764C11.7139 12.6565 11.6531 12.7254 11.5793 12.7777C11.5056 12.8301 10.5702 13.5572 10.5069 13.5899C10.4437 13.6226 10.4437 13.6226 10.2867 13.6988C10.0971 13.7281 9.94104 13.6915 9.7605 13.6267C7.95889 12.9857 6.37358 11.8453 5.18577 10.3359C4.03013 8.81743 3.33659 6.99178 3.18927 5.08037C3.17493 4.89003 3.15666 4.77989 3.17686 4.63464C3.19629 4.48929 3.21661 4.34407 3.30669 4.22327C3.39676 4.10246 4.41521 3.40418 4.41521 3.40418C4.48433 3.34964 4.56474 3.31157 4.6504 3.29282C4.73606 3.27406 4.82476 3.27511 4.90986 3.29588C4.99496 3.31665 5.07425 3.3566 5.14179 3.41275C5.20934 3.46889 5.26339 3.53978 5.2999 3.62009L6.36524 5.81153C6.38404 5.84622 6.39129 5.88613 6.38591 5.92537C6.38054 5.9646 6.36283 6.00109 6.33539 6.02945L5.30546 6.98068C5.50326 7.81619 5.88289 8.59624 6.41679 9.26426Z" fill="#E11E26"/>
</svg>
