<svg width="48" height="48" viewBox="0 0 48 48" fill="none" xmlns="http://www.w3.org/2000/svg">
<rect x="0.5" y="0.5" width="47" height="47" rx="4.5" fill="#F7F7F7" stroke="#E6E6E6"/>
<path d="M30.75 18.25H15L17.8125 29.5H28.5L30.75 18.25ZM30.75 18.25L31.3125 16H34.6875" stroke="#333333"/>
<path d="M20.6875 32.3125C20.6875 32.9683 20.1558 33.5 19.5 33.5C18.8442 33.5 18.3125 32.9683 18.3125 32.3125C18.3125 31.6567 18.8442 31.125 19.5 31.125C20.1558 31.125 20.6875 31.6567 20.6875 32.3125Z" stroke="#333333"/>
<path d="M28 32.3125C28 32.9683 27.4683 33.5 26.8125 33.5C26.1567 33.5 25.625 32.9683 25.625 32.3125C25.625 31.6567 26.1567 31.125 26.8125 31.125C27.4683 31.125 28 31.6567 28 32.3125Z" stroke="#333333"/>
</svg>
