<svg width="85" height="16" viewBox="0 0 85 16" fill="none" xmlns="http://www.w3.org/2000/svg">
<path d="M78 7L81 10L84 7" stroke="#E11E26"/>
<path d="M25.0159 13L21.8398 8.76207H20.8334V13H19.4069V3.54545H20.8334V7.53871H21.2996L24.8728 3.54545H26.6132L22.8323 7.77876L26.7563 13H25.0159ZM30.0305 13.157C29.5812 13.157 29.175 13.0739 28.8118 12.9077C28.4486 12.7384 28.1609 12.4937 27.9485 12.1737C27.7392 11.8536 27.6346 11.4612 27.6346 10.9964C27.6346 10.5964 27.7115 10.267 27.8654 10.0085C28.0193 9.75 28.227 9.54534 28.4886 9.39453C28.7502 9.24373 29.0426 9.12985 29.3658 9.05291C29.6889 8.97597 30.0182 8.9175 30.3537 8.87749C30.7784 8.82824 31.1231 8.78823 31.3878 8.75746C31.6525 8.7236 31.8448 8.66974 31.9648 8.59588C32.0849 8.52202 32.1449 8.40199 32.1449 8.2358V8.20348C32.1449 7.80031 32.031 7.48793 31.8033 7.26633C31.5786 7.04474 31.2431 6.93395 30.7969 6.93395C30.3321 6.93395 29.9659 7.03705 29.6982 7.24325C29.4335 7.44638 29.2504 7.67259 29.1488 7.92188L27.8516 7.62642C28.0054 7.19555 28.2301 6.84777 28.5256 6.5831C28.8241 6.31534 29.1673 6.12145 29.555 6.00142C29.9428 5.87831 30.3506 5.81676 30.7784 5.81676C31.0616 5.81676 31.3616 5.85062 31.6786 5.91832C31.9987 5.98295 32.2972 6.10298 32.5742 6.27841C32.8543 6.45383 33.0836 6.70466 33.2621 7.03089C33.4406 7.35405 33.5298 7.77415 33.5298 8.29119V13H32.1818V12.0305H32.1264C32.0372 12.209 31.9033 12.3845 31.7248 12.5568C31.5463 12.7292 31.317 12.8723 31.0369 12.9862C30.7569 13.1 30.4214 13.157 30.0305 13.157ZM30.3306 12.049C30.7122 12.049 31.0385 11.9736 31.3093 11.8228C31.5832 11.672 31.791 11.475 31.9325 11.2319C32.0772 10.9857 32.1495 10.7225 32.1495 10.4425V9.52841C32.1003 9.57765 32.0049 9.62382 31.8633 9.6669C31.7248 9.70691 31.5663 9.74231 31.3878 9.77308C31.2093 9.80078 31.0354 9.82694 30.8661 9.85156C30.6969 9.87311 30.5553 9.89157 30.4414 9.90696C30.1737 9.94081 29.929 9.99775 29.7074 10.0778C29.4889 10.1578 29.3134 10.2732 29.1811 10.424C29.0518 10.5717 28.9872 10.7687 28.9872 11.0149C28.9872 11.3565 29.1134 11.6151 29.3658 11.7905C29.6181 11.9628 29.9397 12.049 30.3306 12.049ZM34.4889 7.10014V5.90909H40.4719V7.10014H38.159V13H36.811V7.10014H34.4889ZM43.6653 13.157C43.216 13.157 42.8097 13.0739 42.4466 12.9077C42.0834 12.7384 41.7956 12.4937 41.5833 12.1737C41.374 11.8536 41.2694 11.4612 41.2694 10.9964C41.2694 10.5964 41.3463 10.267 41.5002 10.0085C41.6541 9.75 41.8618 9.54534 42.1234 9.39453C42.385 9.24373 42.6774 9.12985 43.0005 9.05291C43.3237 8.97597 43.653 8.9175 43.9885 8.87749C44.4132 8.82824 44.7579 8.78823 45.0225 8.75746C45.2872 8.7236 45.4796 8.66974 45.5996 8.59588C45.7196 8.52202 45.7797 8.40199 45.7797 8.2358V8.20348C45.7797 7.80031 45.6658 7.48793 45.438 7.26633C45.2134 7.04474 44.8779 6.93395 44.4316 6.93395C43.9669 6.93395 43.6007 7.03705 43.3329 7.24325C43.0682 7.44638 42.8851 7.67259 42.7836 7.92188L41.4863 7.62642C41.6402 7.19555 41.8649 6.84777 42.1603 6.5831C42.4589 6.31534 42.802 6.12145 43.1898 6.00142C43.5776 5.87831 43.9854 5.81676 44.4132 5.81676C44.6963 5.81676 44.9964 5.85062 45.3134 5.91832C45.6335 5.98295 45.932 6.10298 46.209 6.27841C46.4891 6.45383 46.7183 6.70466 46.8968 7.03089C47.0753 7.35405 47.1646 7.77415 47.1646 8.29119V13H45.8166V12.0305H45.7612C45.6719 12.209 45.5381 12.3845 45.3596 12.5568C45.181 12.7292 44.9518 12.8723 44.6717 12.9862C44.3916 13.1 44.0562 13.157 43.6653 13.157ZM43.9654 12.049C44.347 12.049 44.6732 11.9736 44.9441 11.8228C45.218 11.672 45.4257 11.475 45.5673 11.2319C45.7119 10.9857 45.7843 10.7225 45.7843 10.4425V9.52841C45.735 9.57765 45.6396 9.62382 45.498 9.6669C45.3596 9.70691 45.2011 9.74231 45.0225 9.77308C44.844 9.80078 44.6702 9.82694 44.5009 9.85156C44.3316 9.87311 44.19 9.89157 44.0762 9.90696C43.8084 9.94081 43.5637 9.99775 43.3422 10.0778C43.1236 10.1578 42.9482 10.2732 42.8159 10.424C42.6866 10.5717 42.622 10.7687 42.622 11.0149C42.622 11.3565 42.7482 11.6151 43.0005 11.7905C43.2529 11.9628 43.5745 12.049 43.9654 12.049ZM48.4445 13L48.4399 11.8043H48.6938C48.8908 11.8043 49.0554 11.7628 49.1878 11.6797C49.3232 11.5935 49.434 11.4489 49.5202 11.2457C49.6063 11.0426 49.6725 10.7625 49.7187 10.4055C49.7648 10.0455 49.7987 9.59304 49.8202 9.0483L49.9449 5.90909H54.8937V13H53.5411V7.10014H51.2236L51.1128 9.50994C51.0851 10.0947 51.0251 10.6056 50.9328 11.0426C50.8435 11.4796 50.7127 11.8443 50.5404 12.1367C50.368 12.426 50.1465 12.643 49.8756 12.7876C49.6048 12.9292 49.2755 13 48.8877 13H48.4445ZM59.7214 13.1431C59.0566 13.1431 58.4765 12.9908 57.981 12.6861C57.4855 12.3814 57.1008 11.9551 56.8269 11.4073C56.553 10.8595 56.416 10.2193 56.416 9.48686C56.416 8.7513 56.553 8.10807 56.8269 7.55717C57.1008 7.00627 57.4855 6.57848 57.981 6.27379C58.4765 5.96911 59.0566 5.81676 59.7214 5.81676C60.3862 5.81676 60.9663 5.96911 61.4618 6.27379C61.9573 6.57848 62.342 7.00627 62.6159 7.55717C62.8899 8.10807 63.0268 8.7513 63.0268 9.48686C63.0268 10.2193 62.8899 10.8595 62.6159 11.4073C62.342 11.9551 61.9573 12.3814 61.4618 12.6861C60.9663 12.9908 60.3862 13.1431 59.7214 13.1431ZM59.726 11.9844C60.1569 11.9844 60.5139 11.8705 60.7971 11.6428C61.0802 11.415 61.2895 11.1119 61.4249 10.7333C61.5634 10.3548 61.6326 9.93774 61.6326 9.48224C61.6326 9.02983 61.5634 8.61435 61.4249 8.2358C61.2895 7.85417 61.0802 7.54794 60.7971 7.31712C60.5139 7.08629 60.1569 6.97088 59.726 6.97088C59.2921 6.97088 58.932 7.08629 58.6458 7.31712C58.3626 7.54794 58.1518 7.85417 58.0133 8.2358C57.8779 8.61435 57.8102 9.02983 57.8102 9.48224C57.8102 9.93774 57.8779 10.3548 58.0133 10.7333C58.1518 11.1119 58.3626 11.415 58.6458 11.6428C58.932 11.8705 59.2921 11.9844 59.726 11.9844ZM69.1009 5.90909V7.10014H65.9294V13H64.5676V5.90909H69.1009Z" fill="#E11E26"/>
<path d="M10.5 5.5C10.5 4.39543 9.60457 3.5 8.5 3.5C7.39543 3.5 6.5 4.39543 6.5 5.5C6.5 6.60457 7.39543 7.5 8.5 7.5C9.60457 7.5 10.5 6.60457 10.5 5.5Z" stroke="#E11E26"/>
<path d="M4.5 3.5H0.5V7.5H4.5V3.5Z" fill="#E11E26" stroke="#E11E26"/>
<path d="M4.5 11.5C4.5 10.3954 3.60457 9.5 2.5 9.5C1.39543 9.5 0.5 10.3954 0.5 11.5C0.5 12.6046 1.39543 13.5 2.5 13.5C3.60457 13.5 4.5 12.6046 4.5 11.5Z" fill="#E11E26" stroke="#E11E26"/>
<path d="M10.5 9.5H6.5V13.5H10.5V9.5Z" fill="#E11E26" stroke="#E11E26"/>
</svg>
