<svg width="111" height="15" viewBox="0 0 111 15" fill="none" xmlns="http://www.w3.org/2000/svg">
<path d="M19.8408 12V4.89062H20.7432V12H19.8408ZM20.292 3.45508C20.1279 3.45508 19.9867 3.39811 19.8682 3.28418C19.7497 3.16569 19.6904 3.02214 19.6904 2.85352C19.6904 2.68945 19.7497 2.55046 19.8682 2.43652C19.9867 2.31803 20.1279 2.25879 20.292 2.25879C20.4606 2.25879 20.6042 2.31803 20.7227 2.43652C20.8411 2.55046 20.9004 2.68945 20.9004 2.85352C20.9004 3.02214 20.8411 3.16569 20.7227 3.28418C20.6042 3.39811 20.4606 3.45508 20.292 3.45508ZM22.3633 12V4.89062H23.2178V6.20312H23.2383C23.4251 5.76107 23.7214 5.41243 24.127 5.15723C24.5371 4.90202 25.0225 4.77441 25.583 4.77441C26.3623 4.77441 26.9753 5.00911 27.4219 5.47852C27.873 5.94792 28.0986 6.58594 28.0986 7.39258V12H27.1963V7.53613C27.1963 6.91634 27.0322 6.43555 26.7041 6.09375C26.3805 5.75195 25.9202 5.58105 25.3232 5.58105C24.708 5.58105 24.2113 5.78385 23.833 6.18945C23.4548 6.59505 23.2656 7.12826 23.2656 7.78906V12H22.3633ZM29.9854 12V5.64258H28.9941V4.89062H29.9854V3.98828C29.9854 2.73958 30.5915 2.11523 31.8037 2.11523C32.0407 2.11523 32.2594 2.13346 32.46 2.16992V2.91504C32.2913 2.88314 32.1159 2.86719 31.9336 2.86719C31.2363 2.86719 30.8877 3.24772 30.8877 4.00879V4.89062H32.4189V5.64258H30.8945V12H29.9854ZM38.4277 11.125C37.8353 11.7858 37.0514 12.1162 36.0762 12.1162C35.1009 12.1162 34.3171 11.7858 33.7246 11.125C33.1322 10.4596 32.8359 9.56641 32.8359 8.44531C32.8359 7.32422 33.1322 6.43327 33.7246 5.77246C34.3216 5.1071 35.1055 4.77441 36.0762 4.77441C37.0514 4.77441 37.8353 5.1071 38.4277 5.77246C39.0202 6.43327 39.3164 7.32422 39.3164 8.44531C39.3164 9.56641 39.0202 10.4596 38.4277 11.125ZM34.3877 10.5508C34.807 11.0612 35.3698 11.3164 36.0762 11.3164C36.7826 11.3164 37.3454 11.0612 37.7646 10.5508C38.1885 10.0404 38.4004 9.33854 38.4004 8.44531C38.4004 7.55208 38.1885 6.85026 37.7646 6.33984C37.3454 5.82943 36.7826 5.57422 36.0762 5.57422C35.3698 5.57422 34.807 5.82943 34.3877 6.33984C33.9684 6.85026 33.7588 7.55208 33.7588 8.44531C33.7588 9.33854 33.9684 10.0404 34.3877 10.5508ZM45.7422 5.80664C45.2454 5.80664 44.849 6.00033 44.5527 6.3877C44.2565 6.77507 44.1084 7.29232 44.1084 7.93945C44.1084 8.58203 44.2542 9.09701 44.5459 9.48438C44.8421 9.86719 45.2386 10.0586 45.7354 10.0586C46.2412 10.0586 46.6445 9.86263 46.9453 9.4707C47.2461 9.07878 47.3965 8.55697 47.3965 7.90527C47.3965 7.2627 47.2484 6.75228 46.9521 6.37402C46.6559 5.99577 46.2526 5.80664 45.7422 5.80664ZM45.9609 2.19727C47.0137 2.19727 47.9548 2.40918 48.7842 2.83301C49.6182 3.25684 50.2676 3.85612 50.7324 4.63086C51.1973 5.4056 51.4297 6.28971 51.4297 7.2832C51.4297 8.37695 51.2155 9.24512 50.7871 9.8877C50.3587 10.5303 49.7708 10.8516 49.0234 10.8516C48.6133 10.8516 48.2624 10.7376 47.9707 10.5098C47.6836 10.2773 47.515 9.97201 47.4648 9.59375H47.417C47.262 9.98568 47.0296 10.2865 46.7197 10.4961C46.4144 10.7012 46.0498 10.8037 45.626 10.8037C44.9196 10.8037 44.3477 10.5394 43.9102 10.0107C43.4772 9.47754 43.2607 8.78027 43.2607 7.91895C43.2607 7.0804 43.4795 6.39681 43.917 5.86816C44.359 5.33952 44.9287 5.0752 45.626 5.0752C46.0225 5.0752 46.3779 5.17546 46.6924 5.37598C47.0114 5.5765 47.2347 5.8431 47.3623 6.17578H47.4102V5.21191H48.2031V9.12207C48.2031 9.44108 48.2852 9.69401 48.4492 9.88086C48.6133 10.0632 48.848 10.1543 49.1533 10.1543C49.6182 10.1543 49.9896 9.89909 50.2676 9.38867C50.5456 8.87826 50.6846 8.17188 50.6846 7.26953C50.6846 5.96615 50.2402 4.90885 49.3516 4.09766C48.4629 3.2819 47.3122 2.87402 45.8994 2.87402C44.9834 2.87402 44.1585 3.08822 43.4248 3.5166C42.6911 3.94499 42.1169 4.54199 41.7021 5.30762C41.292 6.07324 41.0869 6.93685 41.0869 7.89844C41.0869 8.92383 41.3011 9.81934 41.7295 10.585C42.1579 11.346 42.7435 11.9225 43.4863 12.3145C44.2292 12.7109 45.0791 12.9092 46.0361 12.9092C47.0433 12.9092 47.7998 12.8089 48.3057 12.6084V13.2852C47.7269 13.4857 46.9681 13.5859 46.0293 13.5859C44.9219 13.5859 43.9398 13.3604 43.083 12.9092C42.2308 12.4626 41.5586 11.804 41.0664 10.9336C40.5788 10.0632 40.335 9.04232 40.335 7.87109C40.335 7.04167 40.474 6.27604 40.752 5.57422C41.0299 4.86784 41.415 4.26855 41.9072 3.77637C42.3994 3.27962 42.9941 2.89225 43.6914 2.61426C44.3887 2.33626 45.1452 2.19727 45.9609 2.19727ZM53.6924 12H52.7627V2.13574H53.6924V7.24902H53.7471L58.4365 2.13574H59.6191L55.5654 6.49707L60.0225 12H58.8262L54.9092 7.16016L53.6924 8.47949V12ZM62.9756 11.3369C63.5999 11.3369 64.1263 11.1432 64.5547 10.7559C64.9831 10.3685 65.1973 9.89225 65.1973 9.32715V8.54102L63.0918 8.68457C62.5312 8.72103 62.1006 8.85775 61.7998 9.09473C61.499 9.32715 61.3486 9.63932 61.3486 10.0312C61.3486 10.4186 61.499 10.7331 61.7998 10.9746C62.1006 11.2161 62.4925 11.3369 62.9756 11.3369ZM62.791 12.1162C62.0892 12.1162 61.5195 11.9248 61.082 11.542C60.6491 11.1546 60.4326 10.651 60.4326 10.0312C60.4326 9.42057 60.6514 8.9375 61.0889 8.58203C61.5309 8.22656 62.1621 8.02148 62.9824 7.9668L65.1973 7.83008V7.21484C65.1973 6.69987 65.0423 6.29883 64.7324 6.01172C64.4225 5.72005 63.9919 5.57422 63.4404 5.57422C62.9209 5.57422 62.4971 5.69499 62.1689 5.93652C61.8454 6.17806 61.6449 6.5153 61.5674 6.94824H60.6924C60.7425 6.30111 61.016 5.77702 61.5127 5.37598C62.014 4.97493 62.6634 4.77441 63.4609 4.77441C64.2721 4.77441 64.9147 4.98633 65.3887 5.41016C65.8626 5.83398 66.0996 6.4082 66.0996 7.13281V12H65.2383V10.6465H65.2178C65.0218 11.0885 64.7005 11.444 64.2539 11.7129C63.8073 11.9818 63.3197 12.1162 62.791 12.1162ZM67.6172 12V4.89062H68.4717V6.20312H68.4922C68.679 5.76107 68.9753 5.41243 69.3809 5.15723C69.791 4.90202 70.2764 4.77441 70.8369 4.77441C71.6162 4.77441 72.2292 5.00911 72.6758 5.47852C73.127 5.94792 73.3525 6.58594 73.3525 7.39258V12H72.4502V7.53613C72.4502 6.91634 72.2861 6.43555 71.958 6.09375C71.6344 5.75195 71.1742 5.58105 70.5771 5.58105C69.9619 5.58105 69.4652 5.78385 69.0869 6.18945C68.7087 6.59505 68.5195 7.12826 68.5195 7.78906V12H67.6172ZM74.5898 12V11.3301L78.8213 5.66309V5.64258H74.5898V4.89062H79.8604V5.57422L75.6289 11.2275V11.248H79.874V12H74.5898ZM81.2549 12V2.13574H82.1572V12H81.2549ZM86.5869 5.56738C85.9535 5.56738 85.4316 5.78841 85.0215 6.23047C84.6159 6.66797 84.3949 7.23991 84.3584 7.94629H88.7471C88.738 7.23991 88.5352 6.66797 88.1387 6.23047C87.7422 5.78841 87.2249 5.56738 86.5869 5.56738ZM88.6924 9.9834H89.5879C89.4785 10.6077 89.1549 11.1204 88.6172 11.5215C88.084 11.918 87.43 12.1162 86.6553 12.1162C85.6572 12.1162 84.8688 11.7904 84.29 11.1387C83.7113 10.4824 83.4219 9.59147 83.4219 8.46582C83.4219 7.3584 83.7113 6.46745 84.29 5.79297C84.8688 5.11393 85.639 4.77441 86.6006 4.77441C87.5394 4.77441 88.2868 5.09342 88.8428 5.73145C89.3988 6.36947 89.6768 7.2194 89.6768 8.28125V8.66406H84.3516V8.71875C84.3516 9.52083 84.5612 10.1566 84.9805 10.626C85.3997 11.0908 85.9648 11.3232 86.6758 11.3232C87.1999 11.3232 87.6419 11.2002 88.002 10.9541C88.362 10.708 88.5921 10.3844 88.6924 9.9834ZM90.8867 12V4.89062H91.7412V6.15527H91.7617C91.8939 5.72233 92.1172 5.38509 92.4316 5.14355C92.7461 4.89746 93.1221 4.77441 93.5596 4.77441C93.7327 4.77441 93.9196 4.79948 94.1201 4.84961V5.73828C93.9743 5.66992 93.7487 5.63574 93.4434 5.63574C92.9421 5.63574 92.541 5.81348 92.2402 6.16895C91.9395 6.52441 91.7891 6.99154 91.7891 7.57031V12H90.8867ZM95.6514 11.877C95.5283 12 95.3779 12.0615 95.2002 12.0615C95.0225 12.0615 94.8698 12 94.7422 11.877C94.6191 11.7539 94.5576 11.6035 94.5576 11.4258C94.5576 11.2435 94.6191 11.0908 94.7422 10.9678C94.8698 10.8447 95.0225 10.7832 95.2002 10.7832C95.3779 10.7832 95.5283 10.8447 95.6514 10.9678C95.7744 11.0908 95.8359 11.2435 95.8359 11.4258C95.8359 11.6035 95.7744 11.7539 95.6514 11.877ZM98.6934 8.25391L102.207 4.89062H103.328L100.136 7.95996L103.39 12H102.33L99.4863 8.51367L98.6934 9.24512V12H97.7842V2.13574H98.6934V8.25391ZM106.712 11.2686C107.396 11.2686 107.947 11.0088 108.366 10.4893C108.79 9.96517 109.002 9.27702 109.002 8.4248C109.002 7.57259 108.79 6.88444 108.366 6.36035C107.947 5.83626 107.396 5.57422 106.712 5.57422C106.042 5.57422 105.502 5.83626 105.092 6.36035C104.682 6.87988 104.477 7.57031 104.477 8.43164C104.477 9.28841 104.682 9.97656 105.092 10.4961C105.502 11.0111 106.042 11.2686 106.712 11.2686ZM106.801 14.6318C106.035 14.6318 105.381 14.445 104.839 14.0713C104.301 13.6976 103.982 13.2259 103.882 12.6562H104.818C104.937 13.0117 105.176 13.2988 105.536 13.5176C105.901 13.7409 106.336 13.8525 106.842 13.8525C107.503 13.8525 108.027 13.6748 108.414 13.3193C108.806 12.9684 109.002 12.5013 109.002 11.918V10.4893H108.981C108.785 10.9587 108.469 11.3392 108.031 11.6309C107.598 11.9225 107.104 12.0684 106.548 12.0684C105.646 12.0684 104.919 11.7357 104.367 11.0703C103.82 10.4049 103.547 9.52311 103.547 8.4248C103.547 7.32194 103.823 6.43783 104.374 5.77246C104.925 5.1071 105.657 4.77441 106.568 4.77441C107.124 4.77441 107.619 4.92253 108.052 5.21875C108.489 5.51042 108.815 5.90234 109.029 6.39453H109.05V4.89062H109.911V11.8838C109.911 12.7132 109.629 13.3786 109.063 13.8799C108.503 14.3812 107.749 14.6318 106.801 14.6318Z" fill="#333333"/>
<path d="M13.5 3.5V12H1.5V3.5H13.5Z" stroke="#333333"/>
</svg>
