<svg width="287" height="37" viewBox="0 0 287 37" fill="none" xmlns="http://www.w3.org/2000/svg">
<path d="M6.24219 29H0.34375V0.816406H6.24219V13.668H6.41797L17.0039 0.816406H23.5664L13.1367 13.3164L24.2891 29H17.2383L8.87891 17.2227L6.24219 20.3867V29ZM33.8008 25.2109C35.0638 25.2109 36.1315 24.8464 37.0039 24.1172C37.8893 23.375 38.332 22.444 38.332 21.3242V19.8008L33.918 20.0742C32.8503 20.1523 32.0234 20.4193 31.4375 20.875C30.8646 21.3307 30.5781 21.9297 30.5781 22.6719C30.5781 23.4531 30.8711 24.0716 31.457 24.5273C32.043 24.9831 32.8242 25.2109 33.8008 25.2109ZM31.9258 29.332C29.9076 29.332 28.2344 28.7396 26.9062 27.5547C25.5781 26.3698 24.9141 24.8464 24.9141 22.9844C24.9141 21.0833 25.6172 19.5924 27.0234 18.5117C28.4297 17.431 30.4414 16.8125 33.0586 16.6562L38.332 16.3438V14.957C38.332 13.9935 38.013 13.2383 37.375 12.6914C36.75 12.1445 35.8971 11.8711 34.8164 11.8711C33.7747 11.8711 32.9219 12.1055 32.2578 12.5742C31.6068 13.043 31.2096 13.6745 31.0664 14.4688H25.8516C25.9557 12.4115 26.8346 10.7578 28.4883 9.50781C30.1419 8.24479 32.3359 7.61328 35.0703 7.61328C37.7526 7.61328 39.901 8.2513 41.5156 9.52734C43.1302 10.8034 43.9375 12.4961 43.9375 14.6055V29H38.4297V25.7969H38.3125C37.7396 26.8906 36.8672 27.7565 35.6953 28.3945C34.5234 29.0195 33.2669 29.332 31.9258 29.332ZM47.6289 29V8.0625H53.1367V11.793H53.2539C53.8268 10.4648 54.6602 9.44922 55.7539 8.74609C56.8607 8.02995 58.2083 7.67188 59.7969 7.67188C62.1146 7.67188 63.9049 8.36198 65.168 9.74219C66.431 11.1224 67.0625 13.043 67.0625 15.5039V29H61.3594V16.6953C61.3594 15.3151 61.0339 14.2539 60.3828 13.5117C59.7318 12.7695 58.7747 12.3984 57.5117 12.3984C56.2487 12.3984 55.2331 12.8216 54.4648 13.668C53.7096 14.5143 53.332 15.6211 53.332 16.9883V29H47.6289ZM70.168 29V25.7578L80.5977 12.5352V12.418H70.3242V8.0625H87.2188V11.6758L77.4141 24.5273V24.625H87.4531V29H70.168ZM90.9297 29V0.816406H96.6328V29H90.9297ZM109.875 11.832C108.638 11.832 107.603 12.2552 106.77 13.1016C105.949 13.9479 105.487 15.0286 105.383 16.3438H114.27C114.204 15.0026 113.768 13.9154 112.961 13.082C112.167 12.2487 111.138 11.832 109.875 11.832ZM114.348 22.5938H119.582C119.27 24.651 118.241 26.3112 116.496 27.5742C114.764 28.8242 112.609 29.4492 110.031 29.4492C106.815 29.4492 104.289 28.4857 102.453 26.5586C100.63 24.6315 99.7188 21.9883 99.7188 18.6289C99.7188 15.2826 100.63 12.6133 102.453 10.6211C104.276 8.61589 106.73 7.61328 109.816 7.61328C112.85 7.61328 115.266 8.5638 117.062 10.4648C118.859 12.3659 119.758 14.9115 119.758 18.1016V19.8398H105.324V20.1914C105.324 21.6888 105.76 22.9062 106.633 23.8438C107.518 24.7682 108.684 25.2305 110.129 25.2305C111.171 25.2305 112.069 24.9961 112.824 24.5273C113.579 24.0456 114.087 23.401 114.348 22.5938ZM122.707 29V8.0625H128.215V11.832H128.332C128.697 10.5039 129.309 9.48828 130.168 8.78516C131.027 8.08203 132.076 7.73047 133.312 7.73047C133.911 7.73047 134.452 7.80208 134.934 7.94531V12.9648C134.4 12.7435 133.71 12.6328 132.863 12.6328C131.457 12.6328 130.363 13.043 129.582 13.8633C128.801 14.6836 128.41 15.8294 128.41 17.3008V29H122.707ZM157.473 29L155.305 26.6562C154.263 27.5547 152.974 28.2578 151.438 28.7656C149.901 29.2604 148.28 29.5078 146.574 29.5078C143.592 29.5078 141.21 28.7917 139.426 27.3594C137.642 25.9271 136.75 24.013 136.75 21.6172C136.75 20.0156 137.167 18.6159 138 17.418C138.846 16.207 140.168 15.1068 141.965 14.1172C142.043 14.0781 142.186 14.0065 142.395 13.9023C142.603 13.7852 142.785 13.681 142.941 13.5898C143.111 13.4987 143.208 13.4466 143.234 13.4336C141.958 12.1185 141.053 10.9727 140.52 9.99609C139.999 9.01953 139.738 8.01693 139.738 6.98828C139.738 5.10026 140.493 3.53776 142.004 2.30078C143.527 1.0638 145.435 0.445312 147.727 0.445312C150.031 0.445312 151.913 1.05078 153.371 2.26172C154.842 3.45964 155.578 5.0026 155.578 6.89062C155.578 8.33594 155.116 9.65104 154.191 10.8359C153.267 12.0208 151.828 13.1471 149.875 14.2148L155.227 19.9961C155.904 18.7982 156.242 17.0208 156.242 14.6641V13.1797H160.988V14.9961C160.988 18.4727 160.194 21.3112 158.605 23.5117L163.859 29H157.473ZM145.07 16.832C144.003 17.5091 143.234 18.1862 142.766 18.8633C142.31 19.5273 142.082 20.2956 142.082 21.168C142.082 22.431 142.551 23.4466 143.488 24.2148C144.426 24.9831 145.65 25.3672 147.16 25.3672C148.176 25.3672 149.152 25.1914 150.09 24.8398C151.027 24.4883 151.77 24.013 152.316 23.4141L145.852 16.4219C145.695 16.5 145.435 16.6367 145.07 16.832ZM147.238 11.5586C148.514 10.8945 149.432 10.2305 149.992 9.56641C150.552 8.88932 150.832 8.1276 150.832 7.28125C150.832 6.38281 150.546 5.65365 149.973 5.09375C149.4 4.52083 148.658 4.23438 147.746 4.23438C146.835 4.23438 146.086 4.52083 145.5 5.09375C144.914 5.66667 144.621 6.39583 144.621 7.28125C144.621 7.93229 144.816 8.57682 145.207 9.21484C145.598 9.83984 146.275 10.6211 147.238 11.5586ZM178.84 29H166.359V0.816406H178.625C181.268 0.816406 183.365 1.44792 184.914 2.71094C186.464 3.97396 187.238 5.6862 187.238 7.84766C187.238 9.38411 186.73 10.7318 185.715 11.8906C184.712 13.0495 183.456 13.7396 181.945 13.9609V14.1172C183.872 14.2604 185.461 14.9701 186.711 16.2461C187.961 17.5221 188.586 19.0846 188.586 20.9336C188.586 23.4206 187.714 25.3867 185.969 26.832C184.224 28.2773 181.848 29 178.84 29ZM172.258 5.21094V12.5352H176.496C178.072 12.5352 179.289 12.2096 180.148 11.5586C181.008 10.8945 181.438 9.96354 181.438 8.76562C181.438 7.63281 181.06 6.76042 180.305 6.14844C179.549 5.52344 178.482 5.21094 177.102 5.21094H172.258ZM172.258 24.6055H177.336C179.042 24.6055 180.337 24.2539 181.223 23.5508C182.121 22.8346 182.57 21.806 182.57 20.4648C182.57 19.1497 182.108 18.1471 181.184 17.457C180.272 16.7669 178.944 16.4219 177.199 16.4219H172.258V24.6055ZM210.793 8.0625V29H205.285V25.2305H205.168C204.074 28.0039 201.984 29.3906 198.898 29.3906C196.607 29.3906 194.777 28.694 193.41 27.3008C192.043 25.8945 191.359 23.9805 191.359 21.5586V8.0625H197.062V20.3672C197.062 21.7604 197.395 22.8216 198.059 23.5508C198.736 24.2799 199.706 24.6445 200.969 24.6445C202.232 24.6445 203.234 24.2279 203.977 23.3945C204.719 22.5612 205.09 21.4479 205.09 20.0547V8.0625H210.793ZM198.977 4.42969C198.482 4.92448 197.863 5.17188 197.121 5.17188C196.379 5.17188 195.754 4.92448 195.246 4.42969C194.751 3.9349 194.504 3.33594 194.504 2.63281C194.504 1.92969 194.751 1.33073 195.246 0.835938C195.754 0.341146 196.379 0.09375 197.121 0.09375C197.863 0.09375 198.482 0.341146 198.977 0.835938C199.484 1.33073 199.738 1.92969 199.738 2.63281C199.738 3.33594 199.484 3.9349 198.977 4.42969ZM206.945 4.42969C206.451 4.92448 205.832 5.17188 205.09 5.17188C204.348 5.17188 203.723 4.92448 203.215 4.42969C202.72 3.9349 202.473 3.33594 202.473 2.63281C202.473 1.92969 202.72 1.33073 203.215 0.835938C203.723 0.341146 204.348 0.09375 205.09 0.09375C205.832 0.09375 206.451 0.341146 206.945 0.835938C207.453 1.33073 207.707 1.92969 207.707 2.63281C207.707 3.33594 207.453 3.9349 206.945 4.42969ZM214.504 29V8.0625H220.012V11.832H220.129C220.493 10.5039 221.105 9.48828 221.965 8.78516C222.824 8.08203 223.872 7.73047 225.109 7.73047C225.708 7.73047 226.249 7.80208 226.73 7.94531V12.9648C226.197 12.7435 225.507 12.6328 224.66 12.6328C223.254 12.6328 222.16 13.043 221.379 13.8633C220.598 14.6836 220.207 15.8294 220.207 17.3008V29H214.504ZM238.039 24.5469C239.471 24.5469 240.604 24.013 241.438 22.9453C242.284 21.8646 242.707 20.3802 242.707 18.4922C242.707 16.6042 242.284 15.1003 241.438 13.9805C240.591 12.8607 239.458 12.3008 238.039 12.3008C236.633 12.3008 235.513 12.8607 234.68 13.9805C233.859 15.0872 233.449 16.5911 233.449 18.4922C233.449 20.3932 233.859 21.8776 234.68 22.9453C235.5 24.013 236.62 24.5469 238.039 24.5469ZM237.941 36.8906C235.22 36.8906 232.98 36.2917 231.223 35.0938C229.478 33.9089 228.488 32.3724 228.254 30.4844H233.84C234.061 31.2135 234.556 31.7995 235.324 32.2422C236.105 32.6979 237.03 32.9258 238.098 32.9258C239.543 32.9258 240.669 32.5547 241.477 31.8125C242.284 31.0833 242.688 30.1003 242.688 28.8633V25.1914H242.57C242.076 26.3242 241.249 27.2357 240.09 27.9258C238.931 28.6029 237.603 28.9414 236.105 28.9414C233.527 28.9414 231.464 28.0039 229.914 26.1289C228.378 24.2539 227.609 21.6953 227.609 18.4531C227.609 15.1328 228.378 12.5156 229.914 10.6016C231.451 8.6875 233.547 7.73047 236.203 7.73047C237.688 7.73047 238.996 8.08854 240.129 8.80469C241.262 9.52083 242.108 10.4909 242.668 11.7148H242.766V8.0625H248.391V28.707C248.391 31.194 247.434 33.1797 245.52 34.6641C243.618 36.1484 241.092 36.8906 237.941 36.8906ZM261.516 11.832C260.279 11.832 259.243 12.2552 258.41 13.1016C257.59 13.9479 257.128 15.0286 257.023 16.3438H265.91C265.845 15.0026 265.409 13.9154 264.602 13.082C263.807 12.2487 262.779 11.832 261.516 11.832ZM265.988 22.5938H271.223C270.91 24.651 269.882 26.3112 268.137 27.5742C266.405 28.8242 264.25 29.4492 261.672 29.4492C258.456 29.4492 255.93 28.4857 254.094 26.5586C252.271 24.6315 251.359 21.9883 251.359 18.6289C251.359 15.2826 252.271 12.6133 254.094 10.6211C255.917 8.61589 258.371 7.61328 261.457 7.61328C264.491 7.61328 266.906 8.5638 268.703 10.4648C270.5 12.3659 271.398 14.9115 271.398 18.1016V19.8398H256.965V20.1914C256.965 21.6888 257.401 22.9062 258.273 23.8438C259.159 24.7682 260.324 25.2305 261.77 25.2305C262.811 25.2305 263.71 24.9961 264.465 24.5273C265.22 24.0456 265.728 23.401 265.988 22.5938ZM274.348 29V8.0625H279.855V11.832H279.973C280.337 10.5039 280.949 9.48828 281.809 8.78516C282.668 8.08203 283.716 7.73047 284.953 7.73047C285.552 7.73047 286.092 7.80208 286.574 7.94531V12.9648C286.04 12.7435 285.35 12.6328 284.504 12.6328C283.098 12.6328 282.004 13.043 281.223 13.8633C280.441 14.6836 280.051 15.8294 280.051 17.3008V29H274.348Z" fill="white"/>
</svg>
