<svg width="75" height="14" viewBox="0 0 75 14" fill="none" xmlns="http://www.w3.org/2000/svg">
<path d="M5.16665 12.5004H6.8333V7.48166L8.49995 7.47708V5.62542H6.8333V4.70877C6.8333 3.79211 6.8333 3.3292 7.66663 3.33378L8.49995 3.3292V1.50049C8.49995 1.50049 8.29162 1.50049 7.66663 1.50049C5.79162 1.50049 5.16665 2.64629 5.16665 4.70877C5.16665 5.19741 5.16665 5.62542 5.16665 5.62542L3.5 5.62542V7.48166L5.16665 7.48166V12.5004Z" fill="white"/>
<path fill-rule="evenodd" clip-rule="evenodd" d="M5.16665 5.62542L3.5 5.62542V7.48166L5.16665 7.48166V12.5004H6.8333V7.48166L8.49995 7.47708V5.62542H6.8333V4.70877C6.8333 3.79211 6.8333 3.3292 7.66663 3.33378L8.49995 3.3292V1.50049H7.66663C5.79162 1.50049 5.16665 2.64629 5.16665 4.70877V5.62542ZM8.31995 1.68049L7.66663 1.68049C6.76841 1.68049 6.20695 1.95238 5.85975 2.43615C5.50282 2.93346 5.34665 3.68818 5.34665 4.70877V5.62511V5.80542L3.68 5.80542V7.30166L5.34665 7.30166V12.3204H6.6533V7.30216L8.31995 7.29758V5.80542H6.6533V4.70348C6.6533 4.47848 6.6533 4.27203 6.66684 4.093C6.68041 3.91341 6.70848 3.74495 6.77353 3.60148C6.84143 3.45173 6.94802 3.33293 7.10604 3.25596C7.25774 3.18207 7.4447 3.15265 7.66661 3.15378L8.31995 3.15018V1.68049Z" fill="white"/>
<path d="M19.8525 12H18.9229V2.13574H24.7744V2.9834H19.8525V6.68848H24.3779V7.52246H19.8525V12ZM27.8232 11.3369C28.4476 11.3369 28.974 11.1432 29.4023 10.7559C29.8307 10.3685 30.0449 9.89225 30.0449 9.32715V8.54102L27.9395 8.68457C27.3789 8.72103 26.9482 8.85775 26.6475 9.09473C26.3467 9.32715 26.1963 9.63932 26.1963 10.0312C26.1963 10.4186 26.3467 10.7331 26.6475 10.9746C26.9482 11.2161 27.3402 11.3369 27.8232 11.3369ZM27.6387 12.1162C26.9368 12.1162 26.3672 11.9248 25.9297 11.542C25.4967 11.1546 25.2803 10.651 25.2803 10.0312C25.2803 9.42057 25.499 8.9375 25.9365 8.58203C26.3786 8.22656 27.0098 8.02148 27.8301 7.9668L30.0449 7.83008V7.21484C30.0449 6.69987 29.89 6.29883 29.5801 6.01172C29.2702 5.72005 28.8395 5.57422 28.2881 5.57422C27.7686 5.57422 27.3447 5.69499 27.0166 5.93652C26.693 6.17806 26.4925 6.5153 26.415 6.94824H25.54C25.5902 6.30111 25.8636 5.77702 26.3604 5.37598C26.8617 4.97493 27.5111 4.77441 28.3086 4.77441C29.1198 4.77441 29.7624 4.98633 30.2363 5.41016C30.7103 5.83398 30.9473 6.4082 30.9473 7.13281V12H30.0859V10.6465H30.0654C29.8695 11.0885 29.5482 11.444 29.1016 11.7129C28.6549 11.9818 28.1673 12.1162 27.6387 12.1162ZM38.248 7.13965H37.3594C37.2591 6.67936 37.029 6.30339 36.6689 6.01172C36.3135 5.72005 35.8669 5.57422 35.3291 5.57422C34.6318 5.57422 34.0736 5.83398 33.6543 6.35352C33.2396 6.87305 33.0322 7.57031 33.0322 8.44531C33.0322 9.32943 33.2419 10.029 33.6611 10.5439C34.0804 11.0589 34.6387 11.3164 35.3359 11.3164C35.8646 11.3164 36.3066 11.1797 36.6621 10.9062C37.0221 10.6328 37.2546 10.2637 37.3594 9.79883H38.2549C38.1546 10.4824 37.8356 11.0407 37.2979 11.4736C36.7646 11.902 36.1084 12.1162 35.3291 12.1162C34.3538 12.1162 33.5723 11.7881 32.9844 11.1318C32.401 10.471 32.1094 9.57552 32.1094 8.44531C32.1094 7.32878 32.401 6.43783 32.9844 5.77246C33.5723 5.1071 34.3516 4.77441 35.3223 4.77441C36.1289 4.77441 36.7943 5.00228 37.3184 5.45801C37.847 5.91374 38.1569 6.47428 38.248 7.13965ZM42.1924 5.56738C41.5589 5.56738 41.0371 5.78841 40.627 6.23047C40.2214 6.66797 40.0003 7.23991 39.9639 7.94629H44.3525C44.3434 7.23991 44.1406 6.66797 43.7441 6.23047C43.3477 5.78841 42.8304 5.56738 42.1924 5.56738ZM44.2979 9.9834H45.1934C45.084 10.6077 44.7604 11.1204 44.2227 11.5215C43.6895 11.918 43.0355 12.1162 42.2607 12.1162C41.2627 12.1162 40.4743 11.7904 39.8955 11.1387C39.3167 10.4824 39.0273 9.59147 39.0273 8.46582C39.0273 7.3584 39.3167 6.46745 39.8955 5.79297C40.4743 5.11393 41.2445 4.77441 42.2061 4.77441C43.1449 4.77441 43.8923 5.09342 44.4482 5.73145C45.0042 6.36947 45.2822 7.2194 45.2822 8.28125V8.66406H39.957V8.71875C39.957 9.52083 40.1667 10.1566 40.5859 10.626C41.0052 11.0908 41.5703 11.3232 42.2812 11.3232C42.8053 11.3232 43.2474 11.2002 43.6074 10.9541C43.9674 10.708 44.1976 10.3844 44.2979 9.9834ZM49.9102 12.1162C49.3496 12.1162 48.8506 11.9727 48.4131 11.6855C47.9801 11.3939 47.6566 10.9974 47.4424 10.4961H47.4219V12H46.5537V2.13574H47.4629V6.37402H47.4834C47.6885 5.88184 48.0075 5.49219 48.4404 5.20508C48.8734 4.91797 49.3656 4.77441 49.917 4.77441C50.8102 4.77441 51.5326 5.11165 52.084 5.78613C52.64 6.45605 52.918 7.34245 52.918 8.44531C52.918 9.54818 52.64 10.4368 52.084 11.1113C51.5326 11.7812 50.8079 12.1162 49.9102 12.1162ZM49.7393 5.57422C49.0693 5.57422 48.5202 5.84082 48.0918 6.37402C47.668 6.90723 47.4561 7.59766 47.4561 8.44531C47.4561 9.29753 47.668 9.99023 48.0918 10.5234C48.5202 11.0521 49.0693 11.3164 49.7393 11.3164C50.4229 11.3164 50.9674 11.0566 51.373 10.5371C51.7832 10.013 51.9883 9.31576 51.9883 8.44531C51.9883 7.57487 51.7832 6.87988 51.373 6.36035C50.9674 5.83626 50.4229 5.57422 49.7393 5.57422ZM59.3711 11.125C58.7786 11.7858 57.9948 12.1162 57.0195 12.1162C56.0443 12.1162 55.2604 11.7858 54.668 11.125C54.0755 10.4596 53.7793 9.56641 53.7793 8.44531C53.7793 7.32422 54.0755 6.43327 54.668 5.77246C55.265 5.1071 56.0488 4.77441 57.0195 4.77441C57.9948 4.77441 58.7786 5.1071 59.3711 5.77246C59.9635 6.43327 60.2598 7.32422 60.2598 8.44531C60.2598 9.56641 59.9635 10.4596 59.3711 11.125ZM55.3311 10.5508C55.7503 11.0612 56.3132 11.3164 57.0195 11.3164C57.7259 11.3164 58.2887 11.0612 58.708 10.5508C59.1318 10.0404 59.3438 9.33854 59.3438 8.44531C59.3438 7.55208 59.1318 6.85026 58.708 6.33984C58.2887 5.82943 57.7259 5.57422 57.0195 5.57422C56.3132 5.57422 55.7503 5.82943 55.3311 6.33984C54.9118 6.85026 54.7021 7.55208 54.7021 8.44531C54.7021 9.33854 54.9118 10.0404 55.3311 10.5508ZM66.6992 11.125C66.1068 11.7858 65.3229 12.1162 64.3477 12.1162C63.3724 12.1162 62.5885 11.7858 61.9961 11.125C61.4036 10.4596 61.1074 9.56641 61.1074 8.44531C61.1074 7.32422 61.4036 6.43327 61.9961 5.77246C62.5931 5.1071 63.377 4.77441 64.3477 4.77441C65.3229 4.77441 66.1068 5.1071 66.6992 5.77246C67.2917 6.43327 67.5879 7.32422 67.5879 8.44531C67.5879 9.56641 67.2917 10.4596 66.6992 11.125ZM62.6592 10.5508C63.0785 11.0612 63.6413 11.3164 64.3477 11.3164C65.054 11.3164 65.6169 11.0612 66.0361 10.5508C66.46 10.0404 66.6719 9.33854 66.6719 8.44531C66.6719 7.55208 66.46 6.85026 66.0361 6.33984C65.6169 5.82943 65.054 5.57422 64.3477 5.57422C63.6413 5.57422 63.0785 5.82943 62.6592 6.33984C62.2399 6.85026 62.0303 7.55208 62.0303 8.44531C62.0303 9.33854 62.2399 10.0404 62.6592 10.5508ZM69.7617 8.25391L73.2754 4.89062H74.3965L71.2041 7.95996L74.458 12H73.3984L70.5547 8.51367L69.7617 9.24512V12H68.8525V2.13574H69.7617V8.25391Z" fill="white"/>
</svg>
