<svg width="75" height="15" viewBox="0 0 75 15" fill="none" xmlns="http://www.w3.org/2000/svg">
<g clip-path="url(#clip0_559_167)">
<rect x="0.500488" y="1.5" width="10.9999" height="10.9999" rx="2" fill="#D9D9D9"/>
<circle cx="6.00022" cy="6.99998" r="1.99998" fill="#D9D9D9" stroke="#2D2D2D"/>
<path d="M9.22827 3.39648C9.09566 3.39648 8.96848 3.44916 8.87472 3.54292C8.78095 3.63669 8.72827 3.76387 8.72827 3.89647C8.72827 4.02908 8.78095 4.15626 8.87472 4.25002C8.96848 4.34379 9.09566 4.39647 9.22827 4.39647C9.36087 4.39647 9.48805 4.34379 9.58182 4.25002C9.67558 4.15626 9.72826 4.02908 9.72826 3.89647C9.72826 3.76387 9.67558 3.63669 9.58182 3.54292C9.48805 3.44916 9.36087 3.39648 9.22827 3.39648Z" fill="#2D2D2D"/>
</g>
<path d="M19.853 12H18.9233V2.13574H19.853V12ZM21.5552 12V4.89062H22.4097V6.20312H22.4302C22.617 5.76107 22.9132 5.41243 23.3188 5.15723C23.729 4.90202 24.2144 4.77441 24.7749 4.77441C25.5542 4.77441 26.1672 5.00911 26.6138 5.47852C27.0649 5.94792 27.2905 6.58594 27.2905 7.39258V12H26.3882V7.53613C26.3882 6.91634 26.2241 6.43555 25.896 6.09375C25.5724 5.75195 25.1121 5.58105 24.5151 5.58105C23.8999 5.58105 23.4032 5.78385 23.0249 6.18945C22.6466 6.59505 22.4575 7.12826 22.4575 7.78906V12H21.5552ZM28.6714 6.79102C28.6714 6.20312 28.9084 5.72005 29.3823 5.3418C29.8608 4.96354 30.4761 4.77441 31.228 4.77441C31.9526 4.77441 32.5519 4.97038 33.0259 5.3623C33.5044 5.74967 33.7664 6.25553 33.812 6.87988H32.9438C32.8892 6.45605 32.7069 6.12337 32.397 5.88184C32.0916 5.6403 31.6929 5.51953 31.2007 5.51953C30.7176 5.51953 30.3234 5.63574 30.0181 5.86816C29.7173 6.09603 29.5669 6.3877 29.5669 6.74316C29.5669 7.03483 29.6763 7.27409 29.895 7.46094C30.1138 7.64323 30.4601 7.79362 30.9341 7.91211L31.9868 8.16504C32.6978 8.34277 33.2013 8.5752 33.4976 8.8623C33.7938 9.14941 33.9419 9.54818 33.9419 10.0586C33.9419 10.6602 33.6867 11.1546 33.1763 11.542C32.6659 11.9248 32.0096 12.1162 31.2075 12.1162C30.4465 12.1162 29.813 11.9225 29.3071 11.5352C28.8058 11.1478 28.5256 10.6396 28.4663 10.0107H29.3687C29.4325 10.4346 29.6307 10.7673 29.9634 11.0088C30.3006 11.2503 30.7336 11.3711 31.2622 11.3711C31.7954 11.3711 32.2238 11.2572 32.5474 11.0293C32.8709 10.8014 33.0327 10.5007 33.0327 10.127C33.0327 9.81706 32.9325 9.57324 32.7319 9.39551C32.536 9.21322 32.201 9.0651 31.7271 8.95117L30.5718 8.66406C29.9292 8.50456 29.4507 8.27214 29.1362 7.9668C28.8263 7.6569 28.6714 7.26497 28.6714 6.79102ZM35.5483 3.11328H36.4507V4.89062H37.8521V5.64258H36.4507V10.209C36.4507 10.5736 36.5259 10.8402 36.6763 11.0088C36.8267 11.1729 37.0659 11.2549 37.394 11.2549C37.6493 11.2549 37.8133 11.2458 37.8862 11.2275V12C37.7586 12.0273 37.5353 12.041 37.2163 12.041C36.6193 12.041 36.1909 11.9043 35.9312 11.6309C35.6759 11.3529 35.5483 10.8926 35.5483 10.25V5.64258H34.4888V4.89062H35.5483V3.11328ZM41.2222 11.3369C41.8465 11.3369 42.3729 11.1432 42.8013 10.7559C43.2297 10.3685 43.4438 9.89225 43.4438 9.32715V8.54102L41.3384 8.68457C40.7778 8.72103 40.3472 8.85775 40.0464 9.09473C39.7456 9.32715 39.5952 9.63932 39.5952 10.0312C39.5952 10.4186 39.7456 10.7331 40.0464 10.9746C40.3472 11.2161 40.7391 11.3369 41.2222 11.3369ZM41.0376 12.1162C40.3358 12.1162 39.7661 11.9248 39.3286 11.542C38.8957 11.1546 38.6792 10.651 38.6792 10.0312C38.6792 9.42057 38.8979 8.9375 39.3354 8.58203C39.7775 8.22656 40.4087 8.02148 41.229 7.9668L43.4438 7.83008V7.21484C43.4438 6.69987 43.2889 6.29883 42.979 6.01172C42.6691 5.72005 42.2384 5.57422 41.687 5.57422C41.1675 5.57422 40.7437 5.69499 40.4155 5.93652C40.092 6.17806 39.8914 6.5153 39.814 6.94824H38.939C38.9891 6.30111 39.2625 5.77702 39.7593 5.37598C40.2606 4.97493 40.91 4.77441 41.7075 4.77441C42.5187 4.77441 43.1613 4.98633 43.6353 5.41016C44.1092 5.83398 44.3462 6.4082 44.3462 7.13281V12H43.4849V10.6465H43.4644C43.2684 11.0885 42.9471 11.444 42.5005 11.7129C42.0539 11.9818 41.5662 12.1162 41.0376 12.1162ZM48.6733 11.2686C49.3569 11.2686 49.9084 11.0088 50.3276 10.4893C50.7515 9.96517 50.9634 9.27702 50.9634 8.4248C50.9634 7.57259 50.7515 6.88444 50.3276 6.36035C49.9084 5.83626 49.3569 5.57422 48.6733 5.57422C48.0034 5.57422 47.4634 5.83626 47.0532 6.36035C46.6431 6.87988 46.438 7.57031 46.438 8.43164C46.438 9.28841 46.6431 9.97656 47.0532 10.4961C47.4634 11.0111 48.0034 11.2686 48.6733 11.2686ZM48.7622 14.6318C47.9966 14.6318 47.3426 14.445 46.8003 14.0713C46.2625 13.6976 45.9435 13.2259 45.8433 12.6562H46.7798C46.8983 13.0117 47.1375 13.2988 47.4976 13.5176C47.8621 13.7409 48.2974 13.8525 48.8032 13.8525C49.464 13.8525 49.9881 13.6748 50.3755 13.3193C50.7674 12.9684 50.9634 12.5013 50.9634 11.918V10.4893H50.9429C50.7469 10.9587 50.4302 11.3392 49.9927 11.6309C49.5597 11.9225 49.0653 12.0684 48.5093 12.0684C47.6069 12.0684 46.88 11.7357 46.3286 11.0703C45.7817 10.4049 45.5083 9.52311 45.5083 8.4248C45.5083 7.32194 45.784 6.43783 46.3354 5.77246C46.8869 5.1071 47.6183 4.77441 48.5298 4.77441C49.0858 4.77441 49.5802 4.92253 50.0132 5.21875C50.4507 5.51042 50.7765 5.90234 50.9907 6.39453H51.0112V4.89062H51.8726V11.8838C51.8726 12.7132 51.59 13.3786 51.0249 13.8799C50.4644 14.3812 49.7101 14.6318 48.7622 14.6318ZM53.438 12V4.89062H54.2925V6.15527H54.313C54.4451 5.72233 54.6685 5.38509 54.9829 5.14355C55.2974 4.89746 55.6733 4.77441 56.1108 4.77441C56.284 4.77441 56.4709 4.79948 56.6714 4.84961V5.73828C56.5256 5.66992 56.3 5.63574 55.9946 5.63574C55.4933 5.63574 55.0923 5.81348 54.7915 6.16895C54.4907 6.52441 54.3403 6.99154 54.3403 7.57031V12H53.438ZM59.7202 11.3369C60.3446 11.3369 60.8709 11.1432 61.2993 10.7559C61.7277 10.3685 61.9419 9.89225 61.9419 9.32715V8.54102L59.8364 8.68457C59.2759 8.72103 58.8452 8.85775 58.5444 9.09473C58.2437 9.32715 58.0933 9.63932 58.0933 10.0312C58.0933 10.4186 58.2437 10.7331 58.5444 10.9746C58.8452 11.2161 59.2371 11.3369 59.7202 11.3369ZM59.5356 12.1162C58.8338 12.1162 58.2642 11.9248 57.8267 11.542C57.3937 11.1546 57.1772 10.651 57.1772 10.0312C57.1772 9.42057 57.396 8.9375 57.8335 8.58203C58.2756 8.22656 58.9067 8.02148 59.7271 7.9668L61.9419 7.83008V7.21484C61.9419 6.69987 61.7869 6.29883 61.4771 6.01172C61.1672 5.72005 60.7365 5.57422 60.1851 5.57422C59.6655 5.57422 59.2417 5.69499 58.9136 5.93652C58.59 6.17806 58.3895 6.5153 58.312 6.94824H57.437C57.4871 6.30111 57.7606 5.77702 58.2573 5.37598C58.7586 4.97493 59.408 4.77441 60.2056 4.77441C61.0168 4.77441 61.6593 4.98633 62.1333 5.41016C62.6073 5.83398 62.8442 6.4082 62.8442 7.13281V12H61.9829V10.6465H61.9624C61.7664 11.0885 61.4451 11.444 60.9985 11.7129C60.5519 11.9818 60.0643 12.1162 59.5356 12.1162ZM64.3618 12V4.89062H65.2163V6.20312H65.2368C65.3963 5.77018 65.6561 5.42383 66.0161 5.16406C66.3761 4.9043 66.8068 4.77441 67.3081 4.77441C67.8185 4.77441 68.2537 4.91113 68.6138 5.18457C68.9784 5.45345 69.229 5.81576 69.3657 6.27148H69.3862C69.5594 5.82487 69.8442 5.46484 70.2407 5.19141C70.6418 4.91341 71.1043 4.77441 71.6284 4.77441C72.3211 4.77441 72.8771 4.99089 73.2964 5.42383C73.7157 5.85221 73.9253 6.42415 73.9253 7.13965V12H73.0229V7.34473C73.0229 6.79329 72.8771 6.36263 72.5854 6.05273C72.2938 5.73828 71.8905 5.58105 71.3755 5.58105C70.8514 5.58105 70.423 5.76335 70.0903 6.12793C69.7622 6.48796 69.5981 6.9528 69.5981 7.52246V12H68.689V7.2627C68.689 6.75684 68.5386 6.35124 68.2378 6.0459C67.9416 5.736 67.5496 5.58105 67.062 5.58105C66.5379 5.58105 66.1073 5.77246 65.77 6.15527C65.4328 6.53809 65.2642 7.03027 65.2642 7.63184V12H64.3618Z" fill="white"/>
<defs>
<clipPath id="clip0_559_167">
<rect width="11.9999" height="11.9999" fill="white" transform="translate(0.000488281 1)"/>
</clipPath>
</defs>
</svg>
