<svg width="107" height="15" viewBox="0 0 107 15" fill="none" xmlns="http://www.w3.org/2000/svg">
<g opacity="0.6">
<path d="M23.1768 13.1572C22.0602 13.1572 21.1852 12.7015 20.5518 11.79C19.9183 10.874 19.6016 9.63216 19.6016 8.06445C19.6016 6.50586 19.9206 5.26855 20.5586 4.35254C21.1966 3.43652 22.0693 2.97852 23.1768 2.97852C24.2887 2.97852 25.1615 3.43652 25.7949 4.35254C26.4284 5.264 26.7451 6.49902 26.7451 8.05762C26.7451 9.62533 26.4284 10.8672 25.7949 11.7832C25.1615 12.6992 24.2887 13.1572 23.1768 13.1572ZM21.2422 11.1885C21.707 11.9541 22.3519 12.3369 23.1768 12.3369C24.0016 12.3369 24.6465 11.9541 25.1113 11.1885C25.5762 10.4229 25.8086 9.38151 25.8086 8.06445C25.8086 6.75651 25.5739 5.71973 25.1045 4.9541C24.6396 4.18848 23.9971 3.80566 23.1768 3.80566C22.361 3.80566 21.7184 4.19076 21.249 4.96094C20.7796 5.73112 20.5449 6.76335 20.5449 8.05762C20.5449 9.37923 20.7773 10.4229 21.2422 11.1885ZM30.0811 8.30371V7.51074H31.2295C31.8721 7.51074 32.3962 7.33301 32.8018 6.97754C33.2074 6.62207 33.4102 6.16862 33.4102 5.61719C33.4102 5.07487 33.2165 4.63737 32.8291 4.30469C32.4463 3.96745 31.9268 3.79883 31.2705 3.79883C30.6598 3.79883 30.154 3.96745 29.7529 4.30469C29.3519 4.64193 29.1263 5.08398 29.0762 5.63086H28.1738C28.2331 4.83789 28.5475 4.19759 29.1172 3.70996C29.6914 3.22233 30.4229 2.97852 31.3115 2.97852C32.182 2.97852 32.9066 3.21777 33.4854 3.69629C34.0641 4.17025 34.3535 4.77181 34.3535 5.50098C34.3535 6.11621 34.1689 6.63346 33.7998 7.05273C33.4307 7.47201 32.9294 7.73861 32.2959 7.85254V7.87988C33.0524 7.92546 33.654 8.16699 34.1006 8.60449C34.5518 9.03743 34.7773 9.60254 34.7773 10.2998C34.7773 10.8467 34.627 11.3389 34.3262 11.7764C34.0254 12.2139 33.6152 12.5534 33.0957 12.7949C32.5762 13.0365 31.9997 13.1572 31.3662 13.1572C30.3818 13.1572 29.5775 12.9043 28.9531 12.3984C28.3288 11.8926 28.0007 11.2409 27.9688 10.4434H28.8711C28.9076 10.9993 29.1536 11.4551 29.6094 11.8105C30.0697 12.1615 30.653 12.3369 31.3594 12.3369C32.0749 12.3369 32.665 12.1478 33.1299 11.7695C33.5947 11.3913 33.8271 10.9105 33.8271 10.3271C33.8271 9.69824 33.5993 9.20378 33.1436 8.84375C32.6878 8.48372 32.0635 8.30371 31.2705 8.30371H30.0811ZM38.7217 13V4.14062H38.6943C38.6305 4.18164 38.1999 4.48014 37.4023 5.03613C36.6048 5.58757 36.1536 5.89518 36.0488 5.95898V4.96094C36.1309 4.91081 36.5684 4.61003 37.3613 4.05859C38.1543 3.50716 38.6032 3.19954 38.708 3.13574H39.624V13H38.7217ZM42.0166 5.89746C42.0212 5.05892 42.3219 4.36393 42.9189 3.8125C43.5205 3.25651 44.2725 2.97852 45.1748 2.97852C46.0361 2.97852 46.763 3.23828 47.3555 3.75781C47.9479 4.27734 48.2441 4.91536 48.2441 5.67188C48.2441 6.20964 48.0938 6.73145 47.793 7.2373C47.4967 7.73861 46.9385 8.41536 46.1182 9.26758L43.3701 12.1387V12.166H48.4971V13H42.0645V12.3438L45.5508 8.65918C46.2572 7.91634 46.7266 7.34896 46.959 6.95703C47.196 6.5651 47.3145 6.15495 47.3145 5.72656C47.3145 5.1888 47.1048 4.73307 46.6855 4.35938C46.2663 3.98568 45.7536 3.79883 45.1475 3.79883C44.514 3.79883 43.9854 3.99935 43.5615 4.40039C43.1423 4.79688 42.9281 5.2959 42.9189 5.89746V5.9043H42.0166V5.89746ZM55.8594 13.1572C55.0299 13.1572 54.3258 12.9294 53.7471 12.4736C53.1683 12.0133 52.8105 11.4072 52.6738 10.6553H53.624C53.7471 11.1566 54.0114 11.5622 54.417 11.8721C54.8226 12.182 55.3057 12.3369 55.8662 12.3369C56.7458 12.3369 57.4316 11.9518 57.9238 11.1816C58.416 10.4069 58.6735 9.32454 58.6963 7.93457C58.6963 7.91634 58.694 7.88216 58.6895 7.83203C58.6895 7.77734 58.6895 7.73633 58.6895 7.70898H58.6826H58.6758C58.4889 8.26497 58.1266 8.71842 57.5889 9.06934C57.0511 9.42025 56.445 9.5957 55.7705 9.5957C54.8317 9.5957 54.0501 9.28809 53.4258 8.67285C52.806 8.05306 52.4961 7.2806 52.4961 6.35547C52.4961 5.38021 52.8197 4.57357 53.4668 3.93555C54.1139 3.29753 54.932 2.97852 55.9209 2.97852C56.5863 2.97852 57.1787 3.1403 57.6982 3.46387C58.2223 3.78743 58.6348 4.24772 58.9355 4.84473C59.3776 5.61491 59.5986 6.61979 59.5986 7.85938C59.5986 9.51367 59.2682 10.8102 58.6074 11.749C57.9466 12.6878 57.0306 13.1572 55.8594 13.1572ZM55.9209 8.76855C56.6273 8.76855 57.222 8.53613 57.7051 8.07129C58.1927 7.60645 58.4365 7.04134 58.4365 6.37598C58.4365 5.66048 58.195 5.05664 57.7119 4.56445C57.2288 4.06771 56.6341 3.81934 55.9277 3.81934C55.2259 3.81934 54.6357 4.06087 54.1572 4.54395C53.6787 5.02702 53.4395 5.62174 53.4395 6.32812C53.4395 7.02083 53.6742 7.60189 54.1436 8.07129C54.613 8.53613 55.2054 8.76855 55.9209 8.76855ZM64.3975 13.1572C63.2809 13.1572 62.4059 12.7015 61.7725 11.79C61.139 10.874 60.8223 9.63216 60.8223 8.06445C60.8223 6.50586 61.1413 5.26855 61.7793 4.35254C62.4173 3.43652 63.29 2.97852 64.3975 2.97852C65.5094 2.97852 66.3822 3.43652 67.0156 4.35254C67.6491 5.264 67.9658 6.49902 67.9658 8.05762C67.9658 9.62533 67.6491 10.8672 67.0156 11.7832C66.3822 12.6992 65.5094 13.1572 64.3975 13.1572ZM62.4629 11.1885C62.9277 11.9541 63.5726 12.3369 64.3975 12.3369C65.2223 12.3369 65.8672 11.9541 66.332 11.1885C66.7969 10.4229 67.0293 9.38151 67.0293 8.06445C67.0293 6.75651 66.7946 5.71973 66.3252 4.9541C65.8604 4.18848 65.2178 3.80566 64.3975 3.80566C63.5817 3.80566 62.9391 4.19076 62.4697 4.96094C62.0003 5.73112 61.7656 6.76335 61.7656 8.05762C61.7656 9.37923 61.998 10.4229 62.4629 11.1885ZM72.2314 5.89746C72.236 5.05892 72.5368 4.36393 73.1338 3.8125C73.7354 3.25651 74.4873 2.97852 75.3896 2.97852C76.251 2.97852 76.9779 3.23828 77.5703 3.75781C78.1628 4.27734 78.459 4.91536 78.459 5.67188C78.459 6.20964 78.3086 6.73145 78.0078 7.2373C77.7116 7.73861 77.1533 8.41536 76.333 9.26758L73.585 12.1387V12.166H78.7119V13H72.2793V12.3438L75.7656 8.65918C76.472 7.91634 76.9414 7.34896 77.1738 6.95703C77.4108 6.5651 77.5293 6.15495 77.5293 5.72656C77.5293 5.1888 77.3197 4.73307 76.9004 4.35938C76.4811 3.98568 75.9684 3.79883 75.3623 3.79883C74.7288 3.79883 74.2002 3.99935 73.7764 4.40039C73.3571 4.79688 73.1429 5.2959 73.1338 5.89746V5.9043H72.2314V5.89746ZM80.1064 5.89746C80.111 5.05892 80.4118 4.36393 81.0088 3.8125C81.6104 3.25651 82.3623 2.97852 83.2646 2.97852C84.126 2.97852 84.8529 3.23828 85.4453 3.75781C86.0378 4.27734 86.334 4.91536 86.334 5.67188C86.334 6.20964 86.1836 6.73145 85.8828 7.2373C85.5866 7.73861 85.0283 8.41536 84.208 9.26758L81.46 12.1387V12.166H86.5869V13H80.1543V12.3438L83.6406 8.65918C84.347 7.91634 84.8164 7.34896 85.0488 6.95703C85.2858 6.5651 85.4043 6.15495 85.4043 5.72656C85.4043 5.1888 85.1947 4.73307 84.7754 4.35938C84.3561 3.98568 83.8434 3.79883 83.2373 3.79883C82.6038 3.79883 82.0752 3.99935 81.6514 4.40039C81.2321 4.79688 81.0179 5.2959 81.0088 5.89746V5.9043H80.1064V5.89746ZM92.7939 8.30371V7.51074H93.9424C94.585 7.51074 95.109 7.33301 95.5146 6.97754C95.9202 6.62207 96.123 6.16862 96.123 5.61719C96.123 5.07487 95.9294 4.63737 95.542 4.30469C95.1592 3.96745 94.6396 3.79883 93.9834 3.79883C93.3727 3.79883 92.8669 3.96745 92.4658 4.30469C92.0648 4.64193 91.8392 5.08398 91.7891 5.63086H90.8867C90.946 4.83789 91.2604 4.19759 91.8301 3.70996C92.4043 3.22233 93.1357 2.97852 94.0244 2.97852C94.8949 2.97852 95.6195 3.21777 96.1982 3.69629C96.777 4.17025 97.0664 4.77181 97.0664 5.50098C97.0664 6.11621 96.8818 6.63346 96.5127 7.05273C96.1436 7.47201 95.6423 7.73861 95.0088 7.85254V7.87988C95.7653 7.92546 96.3669 8.16699 96.8135 8.60449C97.2646 9.03743 97.4902 9.60254 97.4902 10.2998C97.4902 10.8467 97.3398 11.3389 97.0391 11.7764C96.7383 12.2139 96.3281 12.5534 95.8086 12.7949C95.2891 13.0365 94.7126 13.1572 94.0791 13.1572C93.0947 13.1572 92.2904 12.9043 91.666 12.3984C91.0417 11.8926 90.7135 11.2409 90.6816 10.4434H91.584C91.6204 10.9993 91.8665 11.4551 92.3223 11.8105C92.7826 12.1615 93.3659 12.3369 94.0723 12.3369C94.7878 12.3369 95.3779 12.1478 95.8428 11.7695C96.3076 11.3913 96.54 10.9105 96.54 10.3271C96.54 9.69824 96.3122 9.20378 95.8564 8.84375C95.4007 8.48372 94.7764 8.30371 93.9834 8.30371H92.7939ZM100.888 8.30371V7.51074H102.036C102.679 7.51074 103.203 7.33301 103.608 6.97754C104.014 6.62207 104.217 6.16862 104.217 5.61719C104.217 5.07487 104.023 4.63737 103.636 4.30469C103.253 3.96745 102.733 3.79883 102.077 3.79883C101.466 3.79883 100.961 3.96745 100.56 4.30469C100.159 4.64193 99.9329 5.08398 99.8828 5.63086H98.9805C99.0397 4.83789 99.3542 4.19759 99.9238 3.70996C100.498 3.22233 101.229 2.97852 102.118 2.97852C102.989 2.97852 103.713 3.21777 104.292 3.69629C104.871 4.17025 105.16 4.77181 105.16 5.50098C105.16 6.11621 104.976 6.63346 104.606 7.05273C104.237 7.47201 103.736 7.73861 103.103 7.85254V7.87988C103.859 7.92546 104.461 8.16699 104.907 8.60449C105.358 9.03743 105.584 9.60254 105.584 10.2998C105.584 10.8467 105.434 11.3389 105.133 11.7764C104.832 12.2139 104.422 12.5534 103.902 12.7949C103.383 13.0365 102.806 13.1572 102.173 13.1572C101.188 13.1572 100.384 12.9043 99.7598 12.3984C99.1354 11.8926 98.8073 11.2409 98.7754 10.4434H99.6777C99.7142 10.9993 99.9603 11.4551 100.416 11.8105C100.876 12.1615 101.46 12.3369 102.166 12.3369C102.882 12.3369 103.472 12.1478 103.937 11.7695C104.401 11.3913 104.634 10.9105 104.634 10.3271C104.634 9.69824 104.406 9.20378 103.95 8.84375C103.494 8.48372 102.87 8.30371 102.077 8.30371H100.888Z" fill="white"/>
<g opacity="0.6">
<path d="M6.26089 8.37419C6.85135 9.17219 7.60801 9.82949 8.47774 10.2999L9.85485 9.47268C9.89514 9.45213 9.94062 9.4444 9.98527 9.45052C10.0299 9.45664 10.0717 9.47631 10.1049 9.50693L12.2029 11.3216C12.2831 11.3867 12.3471 11.4697 12.39 11.5642C12.4328 11.6587 12.4533 11.762 12.4498 11.8659C12.4462 11.9699 12.4188 12.0717 12.3697 12.1632C12.3206 12.2548 12.2511 12.3336 12.1667 12.3935C12.0823 12.4534 11.0122 13.2852 10.9399 13.3226C10.8676 13.36 10.8676 13.36 10.688 13.4472C10.4711 13.4807 10.2925 13.4388 10.086 13.3647C8.025 12.6315 6.21146 11.3269 4.85263 9.60009C3.53062 7.86303 2.73723 5.77454 2.5687 3.58794C2.55229 3.3702 2.53139 3.24419 2.5545 3.07804C2.57672 2.91176 2.59997 2.74563 2.70301 2.60744C2.80606 2.46924 3.97113 1.67042 3.97113 1.67042C4.05021 1.60803 4.14219 1.56448 4.24018 1.54303C4.33818 1.52157 4.43965 1.52277 4.537 1.54653C4.63435 1.57029 4.72506 1.616 4.80233 1.68023C4.8796 1.74446 4.94143 1.82554 4.98319 1.91742L6.20192 4.42436C6.22342 4.46405 6.23171 4.5097 6.22556 4.55459C6.21942 4.59948 6.19915 4.64122 6.16776 4.67366L4.98956 5.76184C5.21584 6.71763 5.65012 7.61 6.26089 8.37419Z" fill="white"/>
</g>
</g>
</svg>
