<svg width="107" height="15" viewBox="0 0 107 15" fill="none" xmlns="http://www.w3.org/2000/svg">
<g opacity="0.6">
<path d="M23.1768 13.1572C22.0602 13.1572 21.1852 12.7015 20.5518 11.79C19.9183 10.874 19.6016 9.63216 19.6016 8.06445C19.6016 6.50586 19.9206 5.26855 20.5586 4.35254C21.1966 3.43652 22.0693 2.97852 23.1768 2.97852C24.2887 2.97852 25.1615 3.43652 25.7949 4.35254C26.4284 5.264 26.7451 6.49902 26.7451 8.05762C26.7451 9.62533 26.4284 10.8672 25.7949 11.7832C25.1615 12.6992 24.2887 13.1572 23.1768 13.1572ZM21.2422 11.1885C21.707 11.9541 22.3519 12.3369 23.1768 12.3369C24.0016 12.3369 24.6465 11.9541 25.1113 11.1885C25.5762 10.4229 25.8086 9.38151 25.8086 8.06445C25.8086 6.75651 25.5739 5.71973 25.1045 4.9541C24.6396 4.18848 23.9971 3.80566 23.1768 3.80566C22.361 3.80566 21.7184 4.19076 21.249 4.96094C20.7796 5.73112 20.5449 6.76335 20.5449 8.05762C20.5449 9.37923 20.7773 10.4229 21.2422 11.1885ZM28.4541 13L33.0273 3.99707V3.96973H27.5381V3.13574H33.9639V4.01074L29.4453 13H28.4541ZM35.9873 13L40.5605 3.99707V3.96973H35.0713V3.13574H41.4971V4.01074L36.9785 13H35.9873ZM43.5205 13L48.0938 3.99707V3.96973H42.6045V3.13574H49.0303V4.01074L44.5117 13H43.5205ZM56.3789 13.1572C55.5495 13.1572 54.8454 12.9294 54.2666 12.4736C53.6878 12.0133 53.3301 11.4072 53.1934 10.6553H54.1436C54.2666 11.1566 54.5309 11.5622 54.9365 11.8721C55.3421 12.182 55.8252 12.3369 56.3857 12.3369C57.2653 12.3369 57.9512 11.9518 58.4434 11.1816C58.9355 10.4069 59.193 9.32454 59.2158 7.93457C59.2158 7.91634 59.2135 7.88216 59.209 7.83203C59.209 7.77734 59.209 7.73633 59.209 7.70898H59.2021H59.1953C59.0085 8.26497 58.6462 8.71842 58.1084 9.06934C57.5706 9.42025 56.9645 9.5957 56.29 9.5957C55.3512 9.5957 54.5697 9.28809 53.9453 8.67285C53.3255 8.05306 53.0156 7.2806 53.0156 6.35547C53.0156 5.38021 53.3392 4.57357 53.9863 3.93555C54.6335 3.29753 55.4515 2.97852 56.4404 2.97852C57.1058 2.97852 57.6982 3.1403 58.2178 3.46387C58.7419 3.78743 59.1543 4.24772 59.4551 4.84473C59.8971 5.61491 60.1182 6.61979 60.1182 7.85938C60.1182 9.51367 59.7878 10.8102 59.127 11.749C58.4661 12.6878 57.5501 13.1572 56.3789 13.1572ZM56.4404 8.76855C57.1468 8.76855 57.7415 8.53613 58.2246 8.07129C58.7122 7.60645 58.9561 7.04134 58.9561 6.37598C58.9561 5.66048 58.7145 5.05664 58.2314 4.56445C57.7484 4.06771 57.1536 3.81934 56.4473 3.81934C55.7454 3.81934 55.1553 4.06087 54.6768 4.54395C54.1982 5.02702 53.959 5.62174 53.959 6.32812C53.959 7.02083 54.1937 7.60189 54.6631 8.07129C55.1325 8.53613 55.7249 8.76855 56.4404 8.76855ZM64.917 13.1572C63.8005 13.1572 62.9255 12.7015 62.292 11.79C61.6585 10.874 61.3418 9.63216 61.3418 8.06445C61.3418 6.50586 61.6608 5.26855 62.2988 4.35254C62.9368 3.43652 63.8096 2.97852 64.917 2.97852C66.029 2.97852 66.9017 3.43652 67.5352 4.35254C68.1686 5.264 68.4854 6.49902 68.4854 8.05762C68.4854 9.62533 68.1686 10.8672 67.5352 11.7832C66.9017 12.6992 66.029 13.1572 64.917 13.1572ZM62.9824 11.1885C63.4473 11.9541 64.0921 12.3369 64.917 12.3369C65.7419 12.3369 66.3867 11.9541 66.8516 11.1885C67.3164 10.4229 67.5488 9.38151 67.5488 8.06445C67.5488 6.75651 67.3141 5.71973 66.8447 4.9541C66.3799 4.18848 65.7373 3.80566 64.917 3.80566C64.1012 3.80566 63.4587 4.19076 62.9893 4.96094C62.5199 5.73112 62.2852 6.76335 62.2852 8.05762C62.2852 9.37923 62.5176 10.4229 62.9824 11.1885ZM72.751 5.89746C72.7555 5.05892 73.0563 4.36393 73.6533 3.8125C74.2549 3.25651 75.0068 2.97852 75.9092 2.97852C76.7705 2.97852 77.4974 3.23828 78.0898 3.75781C78.6823 4.27734 78.9785 4.91536 78.9785 5.67188C78.9785 6.20964 78.8281 6.73145 78.5273 7.2373C78.2311 7.73861 77.6729 8.41536 76.8525 9.26758L74.1045 12.1387V12.166H79.2314V13H72.7988V12.3438L76.2852 8.65918C76.9915 7.91634 77.4609 7.34896 77.6934 6.95703C77.9303 6.5651 78.0488 6.15495 78.0488 5.72656C78.0488 5.1888 77.8392 4.73307 77.4199 4.35938C77.0007 3.98568 76.488 3.79883 75.8818 3.79883C75.2484 3.79883 74.7197 3.99935 74.2959 4.40039C73.8766 4.79688 73.6624 5.2959 73.6533 5.89746V5.9043H72.751V5.89746ZM80.626 5.89746C80.6305 5.05892 80.9313 4.36393 81.5283 3.8125C82.1299 3.25651 82.8818 2.97852 83.7842 2.97852C84.6455 2.97852 85.3724 3.23828 85.9648 3.75781C86.5573 4.27734 86.8535 4.91536 86.8535 5.67188C86.8535 6.20964 86.7031 6.73145 86.4023 7.2373C86.1061 7.73861 85.5479 8.41536 84.7275 9.26758L81.9795 12.1387V12.166H87.1064V13H80.6738V12.3438L84.1602 8.65918C84.8665 7.91634 85.3359 7.34896 85.5684 6.95703C85.8053 6.5651 85.9238 6.15495 85.9238 5.72656C85.9238 5.1888 85.7142 4.73307 85.2949 4.35938C84.8757 3.98568 84.363 3.79883 83.7568 3.79883C83.1234 3.79883 82.5947 3.99935 82.1709 4.40039C81.7516 4.79688 81.5374 5.2959 81.5283 5.89746V5.9043H80.626V5.89746ZM93.3135 8.30371V7.51074H94.4619C95.1045 7.51074 95.6286 7.33301 96.0342 6.97754C96.4398 6.62207 96.6426 6.16862 96.6426 5.61719C96.6426 5.07487 96.4489 4.63737 96.0615 4.30469C95.6787 3.96745 95.1592 3.79883 94.5029 3.79883C93.8923 3.79883 93.3864 3.96745 92.9854 4.30469C92.5843 4.64193 92.3587 5.08398 92.3086 5.63086H91.4062C91.4655 4.83789 91.7799 4.19759 92.3496 3.70996C92.9238 3.22233 93.6553 2.97852 94.5439 2.97852C95.4144 2.97852 96.139 3.21777 96.7178 3.69629C97.2965 4.17025 97.5859 4.77181 97.5859 5.50098C97.5859 6.11621 97.4014 6.63346 97.0322 7.05273C96.6631 7.47201 96.1618 7.73861 95.5283 7.85254V7.87988C96.2848 7.92546 96.8864 8.16699 97.333 8.60449C97.7842 9.03743 98.0098 9.60254 98.0098 10.2998C98.0098 10.8467 97.8594 11.3389 97.5586 11.7764C97.2578 12.2139 96.8477 12.5534 96.3281 12.7949C95.8086 13.0365 95.2321 13.1572 94.5986 13.1572C93.6143 13.1572 92.8099 12.9043 92.1855 12.3984C91.5612 11.8926 91.2331 11.2409 91.2012 10.4434H92.1035C92.14 10.9993 92.3861 11.4551 92.8418 11.8105C93.3021 12.1615 93.8854 12.3369 94.5918 12.3369C95.3073 12.3369 95.8975 12.1478 96.3623 11.7695C96.8271 11.3913 97.0596 10.9105 97.0596 10.3271C97.0596 9.69824 96.8317 9.20378 96.376 8.84375C95.9202 8.48372 95.2959 8.30371 94.5029 8.30371H93.3135ZM101.407 8.30371V7.51074H102.556C103.198 7.51074 103.722 7.33301 104.128 6.97754C104.534 6.62207 104.736 6.16862 104.736 5.61719C104.736 5.07487 104.543 4.63737 104.155 4.30469C103.772 3.96745 103.253 3.79883 102.597 3.79883C101.986 3.79883 101.48 3.96745 101.079 4.30469C100.678 4.64193 100.452 5.08398 100.402 5.63086H99.5C99.5592 4.83789 99.8737 4.19759 100.443 3.70996C101.018 3.22233 101.749 2.97852 102.638 2.97852C103.508 2.97852 104.233 3.21777 104.812 3.69629C105.39 4.17025 105.68 4.77181 105.68 5.50098C105.68 6.11621 105.495 6.63346 105.126 7.05273C104.757 7.47201 104.256 7.73861 103.622 7.85254V7.87988C104.379 7.92546 104.98 8.16699 105.427 8.60449C105.878 9.03743 106.104 9.60254 106.104 10.2998C106.104 10.8467 105.953 11.3389 105.652 11.7764C105.352 12.2139 104.941 12.5534 104.422 12.7949C103.902 13.0365 103.326 13.1572 102.692 13.1572C101.708 13.1572 100.904 12.9043 100.279 12.3984C99.6549 11.8926 99.3268 11.2409 99.2949 10.4434H100.197C100.234 10.9993 100.48 11.4551 100.936 11.8105C101.396 12.1615 101.979 12.3369 102.686 12.3369C103.401 12.3369 103.991 12.1478 104.456 11.7695C104.921 11.3913 105.153 10.9105 105.153 10.3271C105.153 9.69824 104.925 9.20378 104.47 8.84375C104.014 8.48372 103.39 8.30371 102.597 8.30371H101.407Z" fill="white"/>
<g opacity="0.6">
<rect x="3.5" y="1.5" width="8" height="12" stroke="white"/>
<path d="M8 12C8 12.2761 7.77614 12.5 7.5 12.5C7.22386 12.5 7 12.2761 7 12C7 11.7239 7.22386 11.5 7.5 11.5C7.77614 11.5 8 11.7239 8 12Z" fill="white"/>
</g>
</g>
</svg>
