<svg width="85" height="15" viewBox="0 0 85 15" fill="none" xmlns="http://www.w3.org/2000/svg">
<g clip-path="url(#clip0_559_161)">
<path fill-rule="evenodd" clip-rule="evenodd" d="M8.70742 8.19095C8.55842 8.11645 7.82792 7.75745 7.69193 7.70746C7.55593 7.65796 7.45693 7.63346 7.35743 7.78245C7.25843 7.93045 6.97393 8.26545 6.88743 8.36445C6.80043 8.46395 6.71393 8.47595 6.56544 8.40195C6.41694 8.32695 5.93794 8.17045 5.37045 7.66446C4.92895 7.27046 4.63046 6.78396 4.54396 6.63497C4.45746 6.48647 4.53446 6.40597 4.60896 6.33197C4.67596 6.26547 4.75745 6.15847 4.83195 6.07197C4.90645 5.98497 4.93095 5.92297 4.98045 5.82347C5.03045 5.72447 5.00545 5.63798 4.96795 5.56348C4.93095 5.48898 4.63396 4.75748 4.50996 4.45999C4.38946 4.17049 4.26696 4.20999 4.17596 4.20499C4.08896 4.20099 3.98996 4.19999 3.89096 4.19999C3.79196 4.19999 3.63096 4.23699 3.49497 4.38599C3.35847 4.53449 2.97497 4.89398 2.97497 5.62548C2.97497 6.35647 3.50697 7.06296 3.58147 7.16246C3.65596 7.26146 4.62896 8.76244 6.11944 9.40594C6.47444 9.55894 6.75094 9.65044 6.96643 9.71844C7.32243 9.83193 7.64643 9.81593 7.90242 9.77743C8.18742 9.73493 8.78142 9.41794 8.90541 9.07094C9.02891 8.72395 9.02891 8.42645 8.99191 8.36445C8.95491 8.30245 8.85641 8.26545 8.70742 8.19095ZM10.2024 2.744C9.6515 2.18947 8.99603 1.74978 8.27396 1.45042C7.5519 1.15105 6.7776 0.997962 5.99594 1.00002C2.71897 1.00002 0.0509995 3.66749 0.0499995 6.94596C0.048481 7.98933 0.322184 9.01464 0.843492 9.91843L0 12.9999L3.15197 12.1729C4.0239 12.648 5.001 12.8969 5.99394 12.8969H5.99644C9.27341 12.8969 11.9414 10.2294 11.9424 6.95046C11.9448 6.16911 11.7923 5.39503 11.4936 4.673C11.1949 3.95097 10.7561 3.29533 10.2024 2.744Z" fill="white"/>
<path d="M7.69181 7.70742C7.82781 7.75742 8.5583 8.11641 8.7073 8.19091C8.8563 8.26541 8.95479 8.30241 8.99179 8.36441C9.02879 8.42641 9.0288 8.72391 8.9053 9.0709C8.7813 9.4179 8.1873 9.7349 7.90231 9.7774C7.64631 9.8159 7.32231 9.8319 6.96631 9.7184C6.75082 9.6504 6.47432 9.5589 6.11932 9.4059C4.62884 8.76241 3.65585 7.26142 3.58135 7.16242L3.58013 7.1608C3.50125 7.05546 2.97485 6.35257 2.97485 5.62544C2.97485 4.89394 3.35835 4.53445 3.49485 4.38595C3.63085 4.23695 3.79185 4.19995 3.89084 4.19995C3.98984 4.19995 4.08884 4.20095 4.17584 4.20495C4.26684 4.20995 4.38934 4.17045 4.50984 4.45995C4.63384 4.75745 4.93083 5.48894 4.96783 5.56344C5.00533 5.63794 5.03033 5.72444 4.98033 5.82344C4.93084 5.92293 4.90633 5.98493 4.83184 6.07193C4.75734 6.15843 4.67584 6.26543 4.60884 6.33193C4.53434 6.40593 4.45734 6.48643 4.54384 6.63493C4.63034 6.78393 4.92883 7.27042 5.37033 7.66442C5.93782 8.17041 6.41682 8.32691 6.56532 8.40191C6.71382 8.47591 6.80032 8.46391 6.88732 8.36441C6.97381 8.26541 7.25831 7.93041 7.35731 7.78242C7.45681 7.63342 7.55581 7.65792 7.69181 7.70742Z" fill="#2D2D2D"/>
</g>
<path d="M24.3096 3.73535L21.8828 12H21.0146L18.3008 2.13574H19.2715L21.4453 10.5645H21.4863L23.8721 2.13574H24.8018L27.1807 10.5645H27.2285L29.3955 2.13574H30.373L27.6523 12H26.791L24.3643 3.73535H24.3096ZM31.4736 12V2.13574H32.3828V6.20312H32.4033C32.5856 5.76107 32.8818 5.41243 33.292 5.15723C33.7021 4.90202 34.1875 4.77441 34.748 4.77441C35.5228 4.77441 36.1403 5.01367 36.6006 5.49219C37.0609 5.9707 37.291 6.60872 37.291 7.40625V12H36.3818V7.55664C36.3818 6.93685 36.2155 6.45378 35.8828 6.10742C35.5501 5.75651 35.0853 5.58105 34.4883 5.58105C33.8503 5.58105 33.3398 5.78613 32.957 6.19629C32.5742 6.60645 32.3828 7.14648 32.3828 7.81641V12H31.4736ZM41.0986 11.3369C41.723 11.3369 42.2493 11.1432 42.6777 10.7559C43.1061 10.3685 43.3203 9.89225 43.3203 9.32715V8.54102L41.2148 8.68457C40.6543 8.72103 40.2236 8.85775 39.9229 9.09473C39.6221 9.32715 39.4717 9.63932 39.4717 10.0312C39.4717 10.4186 39.6221 10.7331 39.9229 10.9746C40.2236 11.2161 40.6156 11.3369 41.0986 11.3369ZM40.9141 12.1162C40.2122 12.1162 39.6426 11.9248 39.2051 11.542C38.7721 11.1546 38.5557 10.651 38.5557 10.0312C38.5557 9.42057 38.7744 8.9375 39.2119 8.58203C39.654 8.22656 40.2852 8.02148 41.1055 7.9668L43.3203 7.83008V7.21484C43.3203 6.69987 43.1654 6.29883 42.8555 6.01172C42.5456 5.72005 42.1149 5.57422 41.5635 5.57422C41.0439 5.57422 40.6201 5.69499 40.292 5.93652C39.9684 6.17806 39.7679 6.5153 39.6904 6.94824H38.8154C38.8656 6.30111 39.139 5.77702 39.6357 5.37598C40.137 4.97493 40.7865 4.77441 41.584 4.77441C42.3952 4.77441 43.0378 4.98633 43.5117 5.41016C43.9857 5.83398 44.2227 6.4082 44.2227 7.13281V12H43.3613V10.6465H43.3408C43.1449 11.0885 42.8236 11.444 42.377 11.7129C41.9303 11.9818 41.4427 12.1162 40.9141 12.1162ZM46.1299 3.11328H47.0322V4.89062H48.4336V5.64258H47.0322V10.209C47.0322 10.5736 47.1074 10.8402 47.2578 11.0088C47.4082 11.1729 47.6475 11.2549 47.9756 11.2549C48.2308 11.2549 48.3949 11.2458 48.4678 11.2275V12C48.3402 12.0273 48.1169 12.041 47.7979 12.041C47.2008 12.041 46.7725 11.9043 46.5127 11.6309C46.2575 11.3529 46.1299 10.8926 46.1299 10.25V5.64258H45.0703V4.89062H46.1299V3.11328ZM50.4502 5.42383H49.6914L50.3477 2.13574H51.3115L50.4502 5.42383ZM51.7217 6.79102C51.7217 6.20312 51.9587 5.72005 52.4326 5.3418C52.9111 4.96354 53.5264 4.77441 54.2783 4.77441C55.0029 4.77441 55.6022 4.97038 56.0762 5.3623C56.5547 5.74967 56.8167 6.25553 56.8623 6.87988H55.9941C55.9395 6.45605 55.7572 6.12337 55.4473 5.88184C55.1419 5.6403 54.7432 5.51953 54.251 5.51953C53.7679 5.51953 53.3737 5.63574 53.0684 5.86816C52.7676 6.09603 52.6172 6.3877 52.6172 6.74316C52.6172 7.03483 52.7266 7.27409 52.9453 7.46094C53.1641 7.64323 53.5104 7.79362 53.9844 7.91211L55.0371 8.16504C55.748 8.34277 56.2516 8.5752 56.5479 8.8623C56.8441 9.14941 56.9922 9.54818 56.9922 10.0586C56.9922 10.6602 56.737 11.1546 56.2266 11.542C55.7161 11.9248 55.0599 12.1162 54.2578 12.1162C53.4967 12.1162 52.8633 11.9225 52.3574 11.5352C51.8561 11.1478 51.5758 10.6396 51.5166 10.0107H52.4189C52.4827 10.4346 52.681 10.7673 53.0137 11.0088C53.3509 11.2503 53.7839 11.3711 54.3125 11.3711C54.8457 11.3711 55.2741 11.2572 55.5977 11.0293C55.9212 10.8014 56.083 10.5007 56.083 10.127C56.083 9.81706 55.9827 9.57324 55.7822 9.39551C55.5863 9.21322 55.2513 9.0651 54.7773 8.95117L53.6221 8.66406C52.9795 8.50456 52.501 8.27214 52.1865 7.9668C51.8766 7.6569 51.7217 7.26497 51.7217 6.79102ZM67.7793 12L66.6855 8.97852H62.543L61.4492 12H60.458L64.1494 2.13574H65.0791L68.7637 12H67.7793ZM64.5938 3.29102L62.8232 8.17188H66.4053L64.6348 3.29102H64.5938ZM73.0361 4.77441C73.9385 4.77441 74.6676 5.11165 75.2236 5.78613C75.7842 6.45605 76.0645 7.34245 76.0645 8.44531C76.0645 9.54818 75.7865 10.4368 75.2305 11.1113C74.679 11.7812 73.9544 12.1162 73.0566 12.1162C72.4961 12.1162 71.9993 11.9727 71.5664 11.6855C71.138 11.3939 70.8281 11.0111 70.6367 10.5371H70.6094V14.3516H69.707V4.89062H70.5615V6.39453H70.5889C70.7894 5.91146 71.1061 5.52181 71.5391 5.22559C71.972 4.9248 72.471 4.77441 73.0361 4.77441ZM72.8789 11.3164C73.5671 11.3164 74.1162 11.0566 74.5264 10.5371C74.9365 10.013 75.1416 9.31576 75.1416 8.44531C75.1416 7.57943 74.9342 6.88444 74.5195 6.36035C74.1094 5.83626 73.5625 5.57422 72.8789 5.57422C72.2044 5.57422 71.6576 5.84082 71.2383 6.37402C70.819 6.90267 70.6094 7.5931 70.6094 8.44531C70.6094 9.30208 70.819 9.99479 71.2383 10.5234C71.6576 11.0521 72.2044 11.3164 72.8789 11.3164ZM80.6104 4.77441C81.5127 4.77441 82.2419 5.11165 82.7979 5.78613C83.3584 6.45605 83.6387 7.34245 83.6387 8.44531C83.6387 9.54818 83.3607 10.4368 82.8047 11.1113C82.2533 11.7812 81.5286 12.1162 80.6309 12.1162C80.0703 12.1162 79.5736 11.9727 79.1406 11.6855C78.7122 11.3939 78.4023 11.0111 78.2109 10.5371H78.1836V14.3516H77.2812V4.89062H78.1357V6.39453H78.1631C78.3636 5.91146 78.6803 5.52181 79.1133 5.22559C79.5462 4.9248 80.0452 4.77441 80.6104 4.77441ZM80.4531 11.3164C81.1413 11.3164 81.6904 11.0566 82.1006 10.5371C82.5107 10.013 82.7158 9.31576 82.7158 8.44531C82.7158 7.57943 82.5085 6.88444 82.0938 6.36035C81.6836 5.83626 81.1367 5.57422 80.4531 5.57422C79.7786 5.57422 79.2318 5.84082 78.8125 6.37402C78.3932 6.90267 78.1836 7.5931 78.1836 8.44531C78.1836 9.30208 78.3932 9.99479 78.8125 10.5234C79.2318 11.0521 79.7786 11.3164 80.4531 11.3164Z" fill="white"/>
<defs>
<clipPath id="clip0_559_161">
<rect width="11.9999" height="11.9999" fill="white" transform="translate(0 1)"/>
</clipPath>
</defs>
</svg>
